<?xml version="1.0" encoding="UTF-8"?>
<svg id="Layer_1" data-name="Layer 1" xmlns="http://www.w3.org/2000/svg" width="5.12cm" height="1.72cm" xmlns:xlink="http://www.w3.org/1999/xlink" viewBox="0 0 145.04 48.62">
  <defs>
    <clipPath id="clippath">
      <rect x="393.13" y="-3601.06" width="2068.09" height="7622.25" style="fill: none;"/>
    </clipPath>
    <clipPath id="clippath-1">
      <rect x="393.13" y="-3601.06" width="2068.08" height="7622.25" style="fill: none;"/>
    </clipPath>
    <clipPath id="clippath-2">
      <path d="M571.94-2771.84h1746.72c15.66,0,28.38,12.72,28.38,28.38v1020.19c0,15.66-12.72,28.38-28.38,28.38H571.94c-15.66,0-28.38-12.72-28.38-28.38v-1020.19c0-15.66,12.72-28.38,28.38-28.38Z" style="fill: none;"/>
    </clipPath>
    <clipPath id="clippath-3">
      <rect x="393.13" y="-3601.81" width="2069" height="7623" style="fill: none;"/>
    </clipPath>
    <clipPath id="clippath-4">
      <rect x="393.13" y="-3601.06" width="2068.09" height="7622.25" style="fill: none;"/>
    </clipPath>
    <mask id="mask" x="-2057.03" y="-4266.97" width="6969.36" height="8953.2" maskUnits="userSpaceOnUse"/>
    <clipPath id="clippath-6">
      <rect x="393.13" y="-3601.06" width="2068.09" height="7622.25" style="fill: none;"/>
    </clipPath>
    <mask id="mask-1" x="-2057.85" y="-4267.78" width="6970.97" height="8954.93" maskUnits="userSpaceOnUse">
      <rect x="-2057.85" y="-4267.78" width="6970.97" height="8954.93"/>
    </mask>
    <clipPath id="clippath-8">
      <rect x="-848.09" y="-3725.77" width="4551.44" height="7870.92" transform="translate(14.38 500.92) rotate(-20)" style="fill: none;"/>
    </clipPath>
  </defs>
  <path d="M0,8.96c6.45.61,12.92,2.58,18.05,6.62.29.23,1.86,1.75,1.98,1.72l.59-.84c-.73-.77-1.45-1.37-1.87-2.38-1.13-2.74.32-5.16,2.13-7.15-1.24-1.75-3.2-3.73-5.41-4.13-.95-.17-3.13.26-3.31-1.2-.23-1.84,1.85-1.7,3.04-1.45,3.15.66,5.68,2.98,7.34,5.63,2.57-1.52,5.92-1.61,8.46-.02,1.72-2.42,3.91-4.6,6.85-5.45,1.14-.33,3.55-.85,3.55,1.03,0,1.66-2.01,1.28-3.06,1.45-2.23.35-4.38,2.4-5.53,4.24,2.91,2.65,3.56,6.76.26,9.41l.58.84c5.29-5.23,12.77-7.56,20.04-8.33v24.28l-.22.18c-4.41.4-8.65,2.01-12.44,4.23-5.19,3.04-9.42,7.48-14.24,10.98-8.12-6.36-15.65-14.27-26.59-15.21l-.22-.18V8.96ZM2.65,12v18.98s-.19.15-.13.2c5.66,1.06,11.07,3.56,15.35,7.41-1.63-4.45-2.13-9.37-1.12-14.03.38-1.76.97-3.36,1.78-4.96-.01-.6-2.67-2.67-3.26-3.08-3.6-2.48-8.29-3.99-12.61-4.52M51.07,12c-5.76.85-12.14,3.05-15.97,7.61,3.12,5.76,2.99,12.93.76,18.99,4.23-3.84,9.55-6.47,15.21-7.41V12ZM34.92,26.02c-1.75.87-3.92,1.35-5.88,1.46-3.36.19-7.22.06-10.26-1.46l-.27,3.74c3.63,2.15,8.63,2.34,12.7,1.48.68-.14,3.64-.98,3.9-1.52.32-.67-.32-2.86-.2-3.71M34.79,33.7c-4.84,1.85-10.76,2.11-15.55,0-.22-.03-.21-.01-.2.19.05.85.87,3.39,1.54,3.88,2.2,1.62,8.25,1.4,10.79.64.4-.12,1.68-.55,1.92-.79.12-.12.57-1.02.66-1.25.36-.85.53-1.81.83-2.68M30.3,42.43c-2.28.5-4.6.5-6.88,0,.27.49,3.23,2.53,3.48,2.49,1.15-.8,2.47-1.42,3.4-2.49" style="fill: #fff;"/>
  <path d="M0,8.96c6.45.61,12.92,2.58,18.05,6.62.29.23,1.86,1.75,1.98,1.72l.59-.84c-.73-.77-1.45-1.37-1.87-2.38-1.13-2.74.32-5.16,2.13-7.15-1.24-1.75-3.2-3.73-5.41-4.13-.95-.17-3.13.26-3.31-1.2-.23-1.84,1.85-1.7,3.05-1.45,3.15.66,5.68,2.98,7.34,5.63,2.57-1.52,5.92-1.61,8.47-.02,1.72-2.42,3.91-4.6,6.84-5.45,1.14-.33,3.55-.85,3.55,1.03,0,1.66-2.01,1.28-3.06,1.45-2.23.35-4.38,2.4-5.53,4.24,2.91,2.65,3.56,6.76.26,9.41l.58.84c5.29-5.23,12.77-7.55,20.04-8.33v24.28l-.22.18c-4.41.4-8.65,2.01-12.44,4.23-5.19,3.04-9.42,7.48-14.24,10.98-8.12-6.36-15.65-14.27-26.59-15.21L0,33.23V8.96ZM2.65,12v18.99s-.19.15-.13.2c5.66,1.06,11.07,3.56,15.35,7.41-1.63-4.45-2.13-9.37-1.12-14.02.38-1.76.97-3.36,1.79-4.96-.01-.6-2.67-2.67-3.26-3.08-3.6-2.48-8.29-3.99-12.61-4.52ZM51.07,12c-5.76.85-12.14,3.05-15.97,7.61,3.12,5.76,2.99,12.93.76,18.99,4.23-3.83,9.55-6.47,15.21-7.41V12ZM34.93,26.02c-1.75.87-3.92,1.35-5.88,1.46-3.36.19-7.22.06-10.26-1.46l-.27,3.74c3.63,2.15,8.63,2.34,12.7,1.48.68-.14,3.64-.98,3.9-1.52.32-.67-.32-2.86-.2-3.7ZM34.79,33.7c-4.84,1.85-10.76,2.11-15.55,0-.22-.03-.21-.01-.2.19.05.85.87,3.39,1.54,3.88,2.2,1.62,8.25,1.4,10.79.64.4-.12,1.68-.55,1.92-.79.12-.12.57-1.02.66-1.25.36-.85.53-1.81.83-2.68ZM30.3,42.43c-2.28.5-4.6.5-6.88,0,.27.49,3.23,2.53,3.48,2.49,1.15-.8,2.47-1.42,3.4-2.49Z" style="fill: #fff;"/>
  <path d="M63.71,39.2c0,.21-.03.4-.1.57-.07.18-.16.33-.3.45-.13.13-.29.22-.48.29-.19.07-.41.1-.66.1h-1.35v-4.95h1.08c.19,0,.37.03.54.08.16.06.31.14.43.25.12.11.22.24.29.4.07.16.1.34.1.54,0,.25-.04.46-.13.61-.09.16-.24.3-.44.44.14.04.28.09.4.16s.23.16.33.26c.09.1.16.22.21.35.05.13.08.27.08.43M62.93,36.95c0-.18-.03-.34-.09-.46-.06-.12-.14-.22-.24-.3-.1-.08-.23-.13-.37-.17-.14-.03-.29-.05-.46-.05h-.62v1.94h.62c.25,0,.45-.03.6-.08.15-.06.27-.13.35-.22.08-.09.14-.19.16-.31.03-.12.04-.23.04-.35M63.39,39.22c0-.21-.04-.38-.14-.52-.09-.13-.21-.23-.35-.31-.14-.07-.3-.12-.47-.15-.17-.02-.34-.04-.51-.04h-.77v2.12h.83c.2,0,.38-.02.56-.05.17-.03.32-.09.45-.17.13-.08.22-.2.3-.34.07-.14.11-.33.11-.55" style="fill: #fff;"/>
  <polygon points="66.97 38.51 66.97 40.63 66.65 40.63 66.65 38.51 65.03 35.68 65.42 35.68 66.82 38.17 68.26 35.68 68.65 35.68 66.97 38.51" style="fill: #fff;"/>
  <path d="M78.07,38.15c0,.35-.07.68-.2.99s-.32.58-.55.81c-.23.23-.5.42-.81.56-.31.14-.64.2-.98.2s-.68-.07-.99-.2c-.31-.14-.58-.32-.82-.56-.23-.23-.42-.51-.55-.81-.14-.31-.2-.64-.2-.99s.07-.67.2-.98c.14-.31.32-.57.55-.8s.5-.41.82-.55c.31-.13.64-.2.99-.2s.67.07.98.2c.31.14.58.32.81.55.23.23.41.5.55.8.14.31.2.63.2.98M77.75,38.15c0-.3-.06-.59-.18-.86-.12-.27-.28-.51-.48-.72-.2-.2-.44-.37-.71-.49-.27-.12-.56-.18-.86-.18s-.6.06-.87.18c-.27.12-.51.28-.71.49-.2.21-.36.44-.48.72-.12.27-.18.56-.18.86s.06.6.18.87c.12.27.28.51.48.72.2.2.44.37.71.48.27.12.56.18.87.18s.59-.06.86-.18c.27-.12.51-.28.71-.48.2-.21.36-.45.48-.72.12-.27.18-.56.18-.87" style="fill: #fff;"/>
  <path d="M82.24,40.63l-1.59-2.34h-.15v2.34h-.33v-4.95h.71c.2,0,.4.02.59.07.19.04.35.12.49.21.14.1.25.23.34.39.08.16.13.36.13.6s-.03.43-.1.59c-.07.16-.16.3-.29.41-.12.11-.27.19-.45.25-.17.05-.37.08-.59.09l1.62,2.34h-.39ZM82.1,36.95c0-.18-.03-.34-.09-.46-.06-.13-.15-.23-.26-.3-.11-.08-.24-.13-.38-.16-.15-.03-.3-.05-.47-.05h-.4v2.02h.48c.35,0,.63-.09.83-.27.2-.18.3-.44.3-.76" style="fill: #fff;"/>
  <path d="M89.43,38.15c0,.35-.07.68-.2.99-.14.31-.32.58-.55.81-.23.23-.5.42-.81.56-.31.14-.64.2-.98.2s-.68-.07-.99-.2c-.31-.14-.58-.32-.82-.56-.23-.23-.42-.51-.55-.81s-.2-.64-.2-.99.07-.67.2-.98c.14-.31.32-.57.55-.8s.5-.41.82-.55c.31-.13.64-.2.99-.2s.67.07.98.2c.31.14.58.32.81.55s.41.5.55.8c.14.31.2.63.2.98M89.1,38.15c0-.3-.06-.59-.18-.86-.12-.27-.28-.51-.48-.72-.2-.2-.44-.37-.71-.49-.27-.12-.56-.18-.86-.18s-.59.06-.87.18c-.27.12-.51.28-.71.49-.2.21-.36.44-.48.72-.12.27-.18.56-.18.86s.06.6.18.87c.12.27.28.51.48.72.2.2.44.37.71.48.27.12.56.18.87.18s.59-.06.86-.18c.27-.12.51-.28.71-.48.2-.21.36-.45.48-.72.12-.27.18-.56.18-.87" style="fill: #fff;"/>
  <path d="M94.26,39.26c0,.2-.04.38-.12.56-.08.17-.19.33-.33.46-.14.13-.3.24-.49.31s-.38.11-.6.11c-.35,0-.65-.1-.89-.3-.24-.2-.43-.46-.56-.77l.27-.13c.06.13.13.25.2.36.07.11.16.2.25.28.1.08.2.14.33.19.12.04.26.07.42.07.17,0,.33-.03.47-.09s.27-.14.38-.25c.11-.1.19-.23.26-.37.06-.14.09-.3.09-.46,0-.19-.06-.35-.18-.48-.12-.13-.27-.24-.44-.34s-.37-.19-.57-.28c-.21-.09-.4-.19-.57-.3-.18-.11-.32-.25-.44-.41-.12-.16-.18-.36-.18-.6,0-.18.03-.34.1-.49.06-.15.16-.27.27-.38.12-.1.26-.19.42-.24.16-.06.34-.09.53-.09.23,0,.45.06.66.19.2.12.37.29.5.51l-.24.19c-.14-.22-.29-.37-.43-.46-.14-.09-.32-.13-.52-.13-.14,0-.26.02-.38.07s-.22.11-.3.19c-.09.08-.15.18-.2.29s-.07.23-.07.36c0,.2.06.37.18.5.12.13.27.25.44.34.17.1.37.19.57.27.21.08.4.18.57.29.17.11.32.25.44.41.12.16.18.37.18.62" style="fill: #fff;"/>
  <polygon points="104.2 40.63 103.76 36.65 101.8 40.8 99.87 36.65 99.44 40.63 99.12 40.63 99.67 35.51 101.8 40.08 103.96 35.51 104.53 40.63 104.2 40.63" style="fill: #fff;"/>
  <path d="M110.1,40.63l-.65-1.63h-2.1l-.65,1.63h-.36l2.08-5.1,2.06,5.1h-.37ZM108.41,36.36l-.95,2.34h1.87l-.92-2.34Z" style="fill: #fff;"/>
  <polygon points="114.46 40.63 113.27 38.43 112.1 40.63 111.74 40.63 113.09 38.11 111.79 35.68 112.16 35.68 113.27 37.77 114.38 35.68 114.75 35.68 113.46 38.11 114.83 40.63 114.46 40.63" style="fill: #fff;"/>
  <path d="M119.91,40.63l-.65-1.63h-2.1l-.65,1.63h-.36l2.07-5.1,2.06,5.1h-.37ZM118.22,36.36l-.95,2.34h1.87l-.92-2.34Z" style="fill: #fff;"/>
  <rect x="122.04" y="35.68" width=".33" height="4.95" style="fill: #fff;"/>
  <path d="M126.8,40.63l-1.59-2.34h-.15v2.34h-.33v-4.95h.71c.2,0,.4.02.59.07.19.04.35.12.49.21.14.1.25.23.34.39.08.16.13.36.13.6s-.03.43-.1.59c-.07.16-.16.3-.28.41-.12.11-.27.19-.45.25-.17.05-.37.08-.59.09l1.62,2.34h-.39ZM126.67,36.95c0-.18-.03-.34-.09-.46-.06-.13-.15-.23-.26-.3-.11-.08-.24-.13-.38-.16-.15-.03-.3-.05-.47-.05h-.4v2.02h.47c.35,0,.63-.09.83-.27.2-.18.3-.44.3-.76" style="fill: #fff;"/>
  <path d="M132.42,40.63l-.65-1.63h-2.1l-.65,1.63h-.36l2.07-5.1,2.06,5.1h-.37ZM130.73,36.36l-.95,2.34h1.87l-.92-2.34Z" style="fill: #fff;"/>
  <path d="M61.67,9.27c-.39-.08-.71-.12-1.08-.18-.06,0-.08-.06-.06-.16.02-.08.08-.12.14-.1.69.06,1.36.08,1.85.08.79,0,1.69-.12,2.56-.12,1.79,0,2.83,1.02,2.83,2.38,0,1.26-.83,2.03-1.71,2.26-.14.06-.12.1.02.12,1.16.22,2.56,1,2.56,2.91s-1.44,2.81-2.95,2.97c-.32.06-.71.08-.87.08-.81,0-1.61-.1-2.42-.1-.57,0-1.4.04-1.85.1-.1.02-.14-.02-.14-.1,0-.1-.06-.14.08-.16.16-.06.53-.12,1.06-.2.22-.06.37-.06.37-.39v-1.65c0-1.24-.02-3.56-.02-7.36,0-.31-.12-.33-.37-.39M64.49,9.22c-.69,0-1.14-.06-1.14.37v3.7c0,.18.08.26.22.26.12-.02.24-.02.33-.02h.32c.65-.06,1.14-.16,1.59-.45.55-.33.83-.93.83-1.73,0-1.34-.88-2.12-2.14-2.12M64.43,13.92c-.14,0-.28,0-.43.02-.22,0-.37.02-.49.06-.1.02-.16.08-.16.18v4.43c0,.29.12.37.35.43.37.06.73.06,1.06.06,1.65,0,2.7-.86,2.7-2.6,0-.61-.18-1.14-.47-1.55-.24-.33-.59-.57-.98-.75-.37-.16-.77-.27-1.18-.27h-.39Z" style="fill: #fff;"/>
  <path d="M60.64,19.82c-.11,0-.19-.04-.24-.09-.05-.04-.14-.14-.14-.31-.01-.06-.03-.18.05-.3.08-.1.19-.13.25-.15.18-.06.49-.11,1.09-.2h.04s.06-.03.08-.03c0,0,0-.03,0-.07v-1.65c0-.45,0-1.04,0-1.8,0-1.32-.01-3.14-.01-5.56,0-.03,0-.06,0-.07-.03,0-.08-.02-.12-.03l.05-.29-.06.29c-.28-.06-.51-.09-.76-.13l-.3-.04c-.1,0-.18-.05-.24-.13-.08-.1-.1-.23-.07-.38.03-.13.11-.23.21-.29.08-.05.17-.06.27-.04.78.07,1.46.08,1.8.08.37,0,.78-.03,1.2-.06.45-.03.91-.06,1.36-.06,1.87,0,3.13,1.07,3.13,2.67,0,1.14-.6,1.88-1.28,2.27.9.33,2.14,1.12,2.14,3.02,0,2.16-1.66,3.1-3.21,3.26-.3.06-.71.08-.9.08-.41,0-.83-.02-1.23-.05-.39-.02-.8-.05-1.19-.05-.6,0-1.4.04-1.81.1-.03,0-.06,0-.09,0M60.63,19.24s0,0,0,0c0,0,0,0,0,0M62.54,19.13c.25,0,.49,0,.74.02-.13-.11-.22-.28-.22-.55v-4.43c0-.18.09-.33.24-.41-.15-.09-.24-.26-.24-.48v-3.7c0-.16.04-.29.12-.4-.22.01-.44.02-.66.02-.09,0-.19,0-.32,0,.08.1.14.24.14.46,0,2.42,0,4.23.01,5.56,0,.76,0,1.35,0,1.8v1.65c0,.22-.06.36-.14.46.11,0,.22,0,.32,0M65.21,13.66c.28.04.57.13.9.27.51.23.87.5,1.11.85.34.48.53,1.08.53,1.72,0,1.23-.49,2.11-1.38,2.56.86-.22,2.11-.84,2.11-2.58,0-1.98-1.62-2.49-2.32-2.62-.26-.04-.33-.18-.35-.3,0-.05,0-.1.02-.16-.2.11-.4.19-.62.26M63.65,18.71s.03.02.12.04c.33.05.66.05.99.05,1.1,0,2.4-.4,2.4-2.3,0-.52-.14-1-.42-1.38-.18-.26-.46-.47-.87-.65-.4-.17-.74-.25-1.06-.25h-.39c-.13,0-.26,0-.4.02-.18,0-.3.01-.39.03v4.34c0,.08.01.11.01.11M63.64,9.55s0,.02,0,.04v3.65c.09,0,.18,0,.26,0h.32c.57-.05,1.03-.14,1.43-.4.46-.28.69-.78.69-1.49,0-1.13-.71-1.83-1.85-1.83h-.23c-.23,0-.55,0-.62.04M65.55,9.12c.85.35,1.38,1.16,1.38,2.22,0,.78-.24,1.39-.71,1.8.69-.22,1.4-.84,1.4-1.95s-.8-1.91-2.07-2.06M61.69,9.2l-.02.08.02-.08h0Z" style="fill: #fff;"/>
  <path d="M79.22,11.97c.06.33,0,.39-.22.39l-6.77.14c-.32,0-.35.1-.37.31-.08.39-.1.69-.1,1.08,0,2.75,1.08,4.86,3.99,4.86,1.24,0,2.09-.53,3.13-1.4.22-.16.31-.1.31.08-.02.16-.02.2-.16.33-.94,1-2.48,1.91-4.35,1.91-2.6,0-4.35-2.46-4.35-5.15s1.75-5.82,4.98-5.82c2.08,0,3.58,1.59,3.89,3.27M75.17,9.16c-1.26,0-2.44,1-3.05,2.65-.1.24-.06.3.08.3l5.35-.18c.3-.02.35-.12.3-.35-.32-1.18-1.2-2.42-2.67-2.42" style="fill: #fff;"/>
  <path d="M74.7,19.98c-2.9,0-4.64-2.77-4.64-5.45,0-3.01,1.97-6.12,5.27-6.12,2.31,0,3.85,1.76,4.18,3.5h0c.03.19.06.41-.08.58-.14.16-.34.16-.42.16l-6.76.14s-.06,0-.08,0c0,.01,0,.03,0,.05-.08.42-.1.7-.1,1.05,0,2.08.64,4.56,3.7,4.56,1.13,0,1.9-.47,2.94-1.33.22-.16.41-.2.57-.12.08.04.22.15.22.42v.05c-.03.2-.06.3-.24.49-.56.6-2.14,1.99-4.55,1.99M73.6,9.35c-1.93.84-2.96,3.06-2.96,5.18,0,2.39,1.52,4.86,4.05,4.86.99,0,1.82-.26,2.49-.59-.44.17-.9.26-1.43.26-2.76,0-4.29-1.83-4.29-5.15,0-.38.02-.71.1-1.14.02-.18.07-.38.29-.48-.01-.01-.03-.03-.03-.04-.13-.19-.03-.42.01-.53.39-1.06,1.01-1.88,1.76-2.36M76.38,9.15c.94.48,1.51,1.47,1.75,2.35.04.14.07.33-.06.5-.02.04-.05.06-.08.09l.96-.02s0-.03,0-.05c-.23-1.22-1.15-2.45-2.55-2.87M75.17,9.45c-1.12,0-2.16.9-2.73,2.36l5.1-.17s.01,0,.02,0c-.29-1.06-1.06-2.19-2.39-2.19" style="fill: #fff;"/>
  <path d="M89.33,11.97c.06.33,0,.39-.22.39l-6.77.14c-.32,0-.35.1-.37.31-.08.39-.1.69-.1,1.08,0,2.75,1.08,4.86,3.99,4.86,1.24,0,2.09-.53,3.13-1.4.22-.16.31-.1.31.08-.02.16-.02.2-.16.33-.94,1-2.48,1.91-4.35,1.91-2.6,0-4.35-2.46-4.35-5.15s1.75-5.82,4.98-5.82c2.09,0,3.58,1.59,3.9,3.27M85.28,9.16c-1.26,0-2.44,1-3.05,2.65-.1.24-.06.3.08.3l5.35-.18c.29-.02.35-.12.29-.35-.32-1.18-1.2-2.42-2.67-2.42" style="fill: #fff;"/>
  <path d="M84.81,19.98c-2.9,0-4.64-2.77-4.64-5.45,0-3.01,1.97-6.12,5.27-6.12,2.31,0,3.85,1.76,4.18,3.5h0c.03.19.06.41-.08.58-.14.16-.34.16-.42.16l-6.76.14s-.06,0-.08,0c0,.01,0,.03,0,.05-.08.42-.1.7-.1,1.05,0,2.08.64,4.56,3.7,4.56,1.13,0,1.9-.47,2.94-1.33.22-.16.41-.2.57-.12.08.04.22.15.22.42v.05c-.03.2-.06.3-.24.49-.56.6-2.14,1.99-4.55,1.99M83.72,9.35c-1.93.84-2.96,3.06-2.96,5.18,0,2.39,1.52,4.86,4.05,4.86.99,0,1.82-.26,2.49-.59-.44.17-.9.26-1.43.26-2.76,0-4.29-1.83-4.29-5.15,0-.38.02-.71.1-1.14.02-.18.07-.38.29-.48-.01-.01-.03-.03-.03-.04-.13-.19-.03-.42.01-.53.39-1.06,1.01-1.88,1.76-2.36M86.49,9.15c.94.48,1.51,1.47,1.75,2.35.03.14.07.33-.06.5-.02.04-.05.06-.08.09l.96-.02s0-.03,0-.05c-.23-1.22-1.15-2.45-2.55-2.87M85.28,9.45c-1.12,0-2.16.9-2.73,2.36l5.1-.17s.01,0,.02,0c-.29-1.06-1.06-2.19-2.39-2.19" style="fill: #fff;"/>
  <path d="M70.35,32.84c-.32.26-.85.49-1.57.49-.79,0-1.08-.57-1.18-1.12-.06-.26-.16-.16-.25-.1-.83.41-2.32,1.24-3.31,1.24-2.77,0-4.01-2.73-4.01-5.33,0-2.83,1.83-5.51,5.08-5.51,1.2,0,1.83.35,2.67.98.16.14.28-.06.49-.39.04-.06.14-.24.32-.49.1-.18.3-.2.3.2v8.44c0,.79.02,1.5.65,1.5.22,0,.37-.02.67-.18.1-.04.16,0,.2.1.02.08.02.14-.04.18M67.56,25.32c0-1.55-1.16-2.4-2.67-2.34-2.22.06-3.44,2.42-3.44,4.76s.77,4.92,3.03,4.92c.49,0,2.14-.71,2.77-1.08.26-.16.31-.25.31-.55v-5.7Z" style="fill: #fff;"/>
  <path d="M64.04,33.64c-2.96,0-4.31-2.92-4.31-5.62,0-2.88,1.84-5.8,5.37-5.8,1.29,0,2,.42,2.76.97.04-.06.1-.14.14-.21l.07-.1c.05-.09.15-.24.28-.43.1-.18.3-.28.49-.23.13.03.34.15.34.6v8.44c0,.93.08,1.2.36,1.2.16,0,.28,0,.53-.14.18-.07.29-.05.36-.02.11.05.19.13.24.27v.04c.08.27-.04.42-.14.48-.26.21-.83.55-1.75.55-.74,0-1.24-.42-1.43-1.19l-.18.09c-.87.44-2.19,1.12-3.13,1.12M63.31,23.13c-1.97.78-2.99,2.84-2.99,4.89,0,2.51,1.15,5.04,3.72,5.04.3,0,.67-.09,1.06-.23-.26.08-.48.13-.63.13-2.45,0-3.32-2.81-3.32-5.21,0-1.87.74-3.77,2.16-4.61M67.52,31.75s.07,0,.1.02c.2.08.25.3.26.37.14.8.58.89.89.89.17,0,.33-.02.47-.04-.67-.19-.67-1.08-.67-1.75v-8.1s-.01.02-.02.03c-.02.04-.04.07-.05.09l-.02.03c-.19.29-.32.5-.56.53-.09.01-.22,0-.35-.11-.26-.19-.49-.35-.72-.48.09.06.17.13.25.21.49.47.75,1.12.75,1.89v5.7c0,.35-.08.54-.33.72M65.03,23.27s-.09,0-.14,0c-2.08.06-3.16,2.29-3.16,4.47s.72,4.62,2.74,4.62c.38,0,1.96-.65,2.62-1.04.17-.11.17-.11.17-.3v-5.7c0-.6-.2-1.11-.57-1.46-.4-.38-.99-.59-1.67-.59M67.95,23.25s0,0,0,0c0,0,0,0,0,0" style="fill: #fff;"/>
  <path d="M80.41,31.95c-.02.24-.08.39-.18.45-1.02.61-2.28.9-3.36.9-3.3,0-5.55-2.34-5.55-5.49,0-2.81,2.16-5.41,5.63-5.41,1.28,0,2.32.26,3.01.55.14.06.2.12.22.29.08.55.16,1.1.29,1.63.02.1-.02.16-.1.2-.1.02-.18,0-.2-.08-.41-1.47-1.2-2.2-3.25-2.2-2.5,0-4.13,2.24-4.13,4.94s1.24,5.09,4.09,5.09c1.2,0,1.95-.35,2.6-.81.2-.14.32-.28.37-.41.14-.37.28-.89.37-1.28-.06-.16.39-.16.29.08l-.12,1.53Z" style="fill: #fff;"/>
  <path d="M76.86,33.6c-3.38,0-5.84-2.43-5.84-5.78,0-2.76,2.07-5.7,5.92-5.7,1.55,0,2.62.36,3.12.57.25.11.36.27.39.53.08.53.15,1.08.29,1.59.05.24-.05.43-.25.53l-.08.02c-.31.06-.49-.1-.54-.29-.35-1.25-.95-1.98-2.96-1.98-2.22,0-3.84,1.95-3.84,4.64,0,2.21.99,4.8,3.8,4.8,1.18,0,1.87-.36,2.43-.75.14-.1.23-.19.27-.29.1-.27.22-.67.35-1.18,0-.12.05-.23.15-.3.16-.12.43-.11.6.02.13.1.18.27.14.44l-.11,1.5c-.03.35-.13.57-.32.68-1.01.6-2.29.95-3.52.95M74.89,23.06c-2.14.8-3.28,2.83-3.28,4.76,0,2.45,1.39,4.31,3.52,4.95-1.81-.82-2.64-2.93-2.64-5.03s.95-3.84,2.39-4.68M80.13,31.72c-.09.21-.25.39-.48.55-.17.12-.35.23-.55.34.35-.13.68-.28.98-.46,0,0,.03-.06.04-.23l.02-.21ZM80.45,24.92s0,0,0,0c0,0,0,0,0,0M79.12,22.98c.33.2.61.46.83.79-.02-.16-.05-.31-.07-.47,0-.03,0-.05,0-.06,0,0-.02,0-.03-.02-.17-.07-.41-.16-.72-.25" style="fill: #fff;"/>
  <path d="M92.37,32.84c-.32.26-.85.49-1.57.49-.79,0-1.08-.57-1.18-1.12-.06-.26-.16-.16-.26-.1-.83.41-2.32,1.24-3.3,1.24-2.77,0-4.01-2.73-4.01-5.33,0-2.83,1.83-5.51,5.08-5.51,1.2,0,1.83.35,2.67.98.16.14.28-.06.49-.39.04-.06.14-.24.32-.49.1-.18.29-.2.29.2v8.44c0,.79.02,1.5.65,1.5.22,0,.37-.02.67-.18.1-.04.16,0,.2.1.02.08.02.14-.04.18M89.57,25.32c0-1.55-1.16-2.4-2.67-2.34-2.22.06-3.44,2.42-3.44,4.76s.77,4.92,3.03,4.92c.49,0,2.14-.71,2.77-1.08.26-.16.32-.25.32-.55v-5.7Z" style="fill: #fff;"/>
  <path d="M86.05,33.64c-2.96,0-4.31-2.92-4.31-5.62,0-2.88,1.84-5.8,5.37-5.8,1.29,0,2,.42,2.76.97.04-.06.1-.14.14-.21l.07-.11c.06-.09.15-.24.27-.43.1-.18.3-.28.49-.23.13.03.34.15.34.6v8.44c0,.93.08,1.2.36,1.2.16,0,.28,0,.53-.14.17-.07.29-.05.36-.02.11.05.19.13.24.27v.04c.08.27-.04.42-.13.48-.26.21-.83.55-1.75.55-.74,0-1.24-.42-1.43-1.19l-.18.09c-.87.44-2.19,1.12-3.13,1.12M85.32,23.13c-1.97.78-2.99,2.84-2.99,4.89,0,2.51,1.15,5.04,3.72,5.04.3,0,.67-.09,1.06-.23-.26.08-.48.13-.63.13-2.45,0-3.32-2.81-3.32-5.21,0-1.87.74-3.77,2.16-4.61M89.53,31.75s.07,0,.1.02c.2.08.25.3.26.37.14.8.58.89.9.89.17,0,.33-.02.47-.04-.67-.19-.67-1.08-.67-1.75v-8.1s-.01.02-.02.02c-.03.04-.04.07-.06.09l-.02.03c-.19.29-.32.5-.56.54-.09.01-.22,0-.35-.11-.26-.19-.49-.35-.72-.48.09.06.17.13.24.21.49.47.75,1.12.75,1.89v5.7c0,.35-.08.54-.34.72M87.04,23.27s-.09,0-.14,0c-2.08.06-3.16,2.29-3.16,4.47s.72,4.62,2.74,4.62c.38,0,1.96-.65,2.62-1.04.17-.11.17-.11.17-.3v-5.7c0-.6-.2-1.11-.57-1.46-.4-.38-.98-.59-1.67-.59M89.96,23.25s0,0,0,0c0,0,0,0,0,0" style="fill: #fff;"/>
  <path d="M98.52,33.19c-1.51,0-2.22-.1-3.07-.1-.71,0-1.54.06-2.07.08-.14.02-.12.02-.14-.12,0-.1.04-.14.1-.16.26-.06.61-.1.98-.16.45-.06.51-.14.51-.55v-8.79c0-.37-.08-.37-.26-.43-.18-.02-.84-.12-1.18-.18-.1-.02-.16-.06-.16-.16.02-.1.06-.16.16-.16.37.08,1.14.1,1.87.1,1,0,2.14-.08,3.03-.08,3.15,0,6.08,1.87,6.08,5.31s-2.46,5.39-5.86,5.39M97.95,22.92h-.85c-.29,0-.53,0-.67.02-.24,0-.26.1-.26.26v9.21c0,.24.06.27.3.29.45.02,1.22.08,1.83.08,2.93,0,4.64-2.04,4.64-5,0-3.31-2.1-4.86-5-4.86" style="fill: #fff;"/>
  <path d="M98.52,33.48c-.88,0-1.47-.03-2-.06-.38-.02-.71-.04-1.07-.04-.48,0-1.01.03-1.47.05-.22.01-.41.02-.58.03-.07.01-.19.03-.3-.06-.11-.08-.13-.2-.13-.27v-.08c0-.21.1-.37.29-.44.21-.05.43-.08.67-.12.11-.02.23-.03.36-.05.2-.03.25-.05.26-.06,0,0,0-.04,0-.21v-8.79c0-.07,0-.11,0-.14,0,0,0,0-.01,0-.16-.02-.84-.12-1.17-.18-.37-.07-.4-.36-.4-.45v-.06c.08-.36.37-.39.45-.39h.06c.29.07.9.1,1.81.1.51,0,1.06-.02,1.6-.04.51-.02,1-.04,1.43-.04,3.17,0,6.37,1.92,6.37,5.6,0,3.4-2.47,5.68-6.16,5.68M95.46,32.8c.19,0,.37,0,.55.01-.07-.09-.12-.22-.12-.41v-9.21c0-.15.03-.27.09-.35-.34,0-.68.01-.98,0,.11.12.14.28.14.53v8.79c0,.29-.05.49-.18.62.17,0,.33,0,.49,0M100.58,23.14c1.7.77,2.66,2.39,2.66,4.64,0,2.36-1.05,4.11-2.8,4.87,2.27-.62,3.65-2.39,3.65-4.85s-1.58-4.02-3.51-4.66M96.48,32.4s.02,0,.03,0c.12,0,.29.01.46.02.41.02.92.05,1.34.05,2.68,0,4.35-1.8,4.35-4.7s-1.71-4.57-4.7-4.57h-.85c-.27,0-.51,0-.63.02h0v9.17Z" style="fill: #fff;"/>
  <path d="M114.75,25.66c.06.33,0,.39-.22.39l-6.77.14c-.32,0-.35.1-.37.31-.08.39-.1.69-.1,1.08,0,2.75,1.08,4.86,3.99,4.86,1.24,0,2.09-.53,3.13-1.4.22-.16.31-.1.31.08-.02.16-.02.2-.16.33-.94,1-2.48,1.91-4.35,1.91-2.6,0-4.35-2.46-4.35-5.15s1.75-5.82,4.98-5.82c2.08,0,3.58,1.59,3.89,3.27M110.7,22.84c-1.26,0-2.44,1-3.05,2.66-.1.24-.06.29.08.29l5.35-.18c.3-.02.35-.12.3-.35-.32-1.18-1.2-2.42-2.68-2.42" style="fill: #fff;"/>
  <path d="M110.23,33.66c-2.9,0-4.64-2.77-4.64-5.45,0-3.01,1.97-6.12,5.27-6.12,2.31,0,3.85,1.76,4.18,3.5h0c.03.19.06.41-.08.58-.14.16-.34.16-.42.16l-6.76.14s-.06,0-.08,0c0,.01,0,.03,0,.05-.08.42-.1.7-.1,1.05,0,2.08.64,4.56,3.7,4.56,1.13,0,1.9-.47,2.94-1.33.22-.16.41-.2.57-.12.08.04.22.15.22.42v.05c-.03.2-.06.3-.24.49-.56.6-2.14,1.99-4.55,1.99M109.14,23.03c-1.93.84-2.96,3.06-2.96,5.18,0,2.39,1.52,4.86,4.05,4.86.99,0,1.82-.26,2.49-.59-.44.17-.9.26-1.43.26-2.76,0-4.29-1.83-4.29-5.15,0-.38.02-.71.1-1.14.02-.18.07-.38.29-.48-.01-.01-.03-.03-.03-.04-.13-.19-.03-.42.01-.53.39-1.06,1.01-1.88,1.76-2.36M111.91,22.84c.94.48,1.51,1.47,1.75,2.35.04.14.07.33-.06.5-.03.04-.05.06-.08.09l.96-.02s0-.03,0-.05c-.23-1.22-1.15-2.45-2.55-2.87M110.7,23.14c-1.12,0-2.16.9-2.73,2.36l5.1-.17s.01,0,.02,0c-.29-1.06-1.06-2.19-2.39-2.19" style="fill: #fff;"/>
  <path d="M132.93,33.17c-.77-.06-1.36-.1-2.12-.1-.73,0-1.34.04-2.1.1-.08,0-.12-.04-.14-.14-.06-.16.37-.12.73-.22.31-.06.47-.1.69-.2.08-.02.12-.14.12-.31v-1.73c0-.89.02-1.67.02-2.75v-2.2c0-.96-.55-2.3-2.34-2.3-.87,0-1.85.39-2.54.81-.29.16-.29.26-.29.51v7.67c-.02.37.12.37.33.43.41.06.77.1,1.1.16.1.02.16.06.14.14-.02.1-.06.14-.16.14-.77-.06-1.32-.1-2.09-.1s-1.34.04-2.07.1c-.14,0-.1,0-.16-.14-.02-.14.04-.12.14-.14.3-.06.63-.1,1-.16.29-.06.39-.1.39-.43v-1.91c0-1.08.02-1.99.02-2.99v-1.79c0-1.5-.79-2.38-2.28-2.38-1.12,0-2.01.57-2.71,1.02-.18.12-.26.24-.26.35-.02,1.63,0,4.48,0,7.69,0,.37.12.37.36.43.39.06.77.1,1.1.16.1.02.16.06.14.14-.02.1-.06.14-.16.14-.77-.06-1.32-.1-2.09-.1s-1.36.04-2.12.1c-.08,0-.12-.04-.14-.14-.06-.14,0-.12.14-.14.3-.06.69-.1,1.02-.16.29-.06.39-.1.39-.43,0-1.44.02-2.42.02-3.23v-5.63c0-.33-.02-.43-.32-.49-.18-.02-.57-.06-.98-.12-.14,0-.12.02-.12-.12.02-.06.02-.1.02-.12,0-.02.04-.04.1-.02.37.02.85.06,1.16.06.22.02.57-.02.87-.04.18,0,.61-.22.61.65v.79c1.18-.96,2.3-1.55,3.7-1.55s2.26.57,2.81,1.44c1.18-.77,2.38-1.44,3.8-1.44,1.85,0,2.81,1.32,2.81,2.95v6.87c0,.37.12.37.33.43.41.06.81.1,1.12.16.12.02.18.06.16.14-.02.1-.06.14-.16.14" style="fill: #fff;"/>
  <path d="M132.93,33.46h-.02c-.72-.06-1.32-.1-2.1-.1-.69,0-1.27.03-2.08.1-.11-.01-.37-.03-.44-.35-.03-.1-.02-.2.03-.28.11-.18.31-.2.55-.23.11-.01.24-.03.35-.06.29-.06.43-.09.59-.16,0-.02,0-.04,0-.07v-1.73c0-.42,0-.82,0-1.24,0-.46.01-.95.01-1.51v-2.2c0-.93-.54-2.01-2.05-2.01-.82,0-1.77.4-2.39.77-.12.07-.14.1-.14.1,0,.02,0,.1,0,.16v7.67c0,.06,0,.1,0,.12.02,0,.04.01.06.02l.06.02.36.05c.25.03.49.06.71.1.15.03.26.1.32.2.06.09.07.19.05.3-.04.22-.21.36-.44.36-.81-.06-1.34-.1-2.08-.1-.71,0-1.3.04-2.04.1-.14,0-.34,0-.43-.26,0-.01-.01-.03-.02-.05l-.02-.07s-.03-.19.07-.32.21-.14.28-.14c.23-.04.44-.08.67-.11.12-.02.25-.04.38-.06.02,0,.11-.02.14-.04,0,0,0-.04,0-.11v-1.91c0-.55,0-1.06,0-1.56,0-.48.01-.94.01-1.44v-1.79c0-.95-.34-2.09-1.99-2.09-1.03,0-1.87.54-2.54.97-.12.08-.13.12-.13.12-.01,1.04,0,2.6,0,4.41,0,1.02,0,2.13,0,3.28,0,.06,0,.09,0,.12.02,0,.05.01.07.02h.05c.13.03.28.05.43.07.23.03.45.06.65.09.16.03.26.1.33.2.06.09.07.19.04.3-.04.22-.21.36-.44.36-.81-.06-1.34-.1-2.08-.1s-1.39.04-2.1.1c-.11,0-.36-.02-.44-.34-.03-.07-.07-.2.01-.34.09-.15.24-.17.32-.17h.05c.15-.04.35-.06.55-.09.16-.02.32-.04.46-.07.03,0,.11-.02.15-.04,0,0,0-.04,0-.11,0-.82,0-1.5.01-2.07,0-.43,0-.81,0-1.15v-5.63s0-.14,0-.19c-.02,0-.04-.01-.07-.02h-.07c-.2-.03-.53-.06-.87-.11-.1,0-.21,0-.3-.09-.1-.1-.1-.21-.09-.28l.02-.28.14-.13c.08-.06.19-.08.3-.06.11,0,.23.01.35.02.27.02.55.04.76.04.17.01.41,0,.62-.02l.22-.02s.05,0,.07,0c.13-.02.38-.06.59.12.18.16.27.42.27.83v.19c1.19-.87,2.23-1.25,3.4-1.25,1.24,0,2.23.46,2.89,1.33,1.05-.67,2.28-1.33,3.72-1.33,1.86,0,3.11,1.3,3.11,3.24v6.87c0,.06,0,.1,0,.12.02,0,.04.01.06.02h.05c.11.03.26.05.4.06.26.03.49.06.7.1.05,0,.24.04.34.19.06.09.07.2.05.3-.04.22-.21.36-.44.36M127.78,23.02c1.82,0,2.63,1.3,2.63,2.59v2.2c0,.57,0,1.06-.01,1.52,0,.42,0,.81,0,1.23v1.73c0,.25-.07.39-.14.48.34,0,.72-.01,1.05,0-.08-.1-.12-.26-.12-.48v-6.87c0-1.28-.66-2.66-2.52-2.66-.59,0-1.15.13-1.67.33.26-.05.52-.09.79-.09M117.21,22.94c.09.14.1.31.1.51v5.63c0,.35,0,.73,0,1.16,0,.58-.01,1.25-.01,2.07,0,.23-.05.38-.13.48.33,0,.7,0,1.02,0-.07-.1-.12-.25-.12-.48,0-1.15,0-2.26,0-3.28,0-1.81,0-3.37,0-4.42v-1.36c0-.31-.06-.38-.07-.38-.01,0-.08,0-.12.01-.05,0-.1.01-.14.01l-.19.02c-.11,0-.23.02-.34.02M121.32,22.94c1.64,0,2.57.97,2.57,2.67v1.79c0,.49,0,.96-.01,1.44,0,.5,0,1,0,1.55v1.91c0,.23-.05.38-.13.48.33,0,.7,0,1.01,0-.08-.1-.12-.26-.11-.49v-7.66c0-.16,0-.29.06-.41l-.09-.14c-.54-.85-1.43-1.3-2.57-1.3-.47,0-.91.07-1.36.22.2-.04.41-.06.63-.06" style="fill: #fff;"/>
  <path d="M144.62,22.77c-.18.02-.51.06-.75.12-.59.2-.47.53-.87,1.28-.29.77-.94,2.36-1.18,2.93-.26.63-.96,2.28-1.4,3.4-.06.12-.67,1.73-.92,2.3-.55,1.44-1.77,4.72-1.93,5.09-.26.53-.57.83-1.18.83-.31,0-.59-.18-.59-.51,0-.37.34-.61.71-.61.22,0,.26.06.39.08.24,0,.51-.49.55-.73l1.22-3.25c.18-.47.02-.89-.16-1.34l-3.32-8.5c-.28-1.24-.81-.91-1.5-1.12-.24.04-.18-.2-.1-.26h.1c.65.06,1.28.1,1.97.1.55,0,1.38-.06,1.95-.12.1-.02.14.02.16.12.02.1-.04.16-.14.16-.32.06-.73.1-.98.16-.37.08-.33.3-.2.61l2.71,6.82c.02.06.1.26.24.55.1.24.22.22.33-.06.96-2.36,1.83-4.6,2.79-7.36.14-.39-.33-.59-.67-.65-.3-.06-.55-.1-.63-.12-.06-.02-.08-.06-.06-.14.06-.14.04-.12.18-.1.49.06,1.22.12,1.67.12s1.04-.04,1.53-.1c.1-.02.18-.04.18.12.02.14.02.1-.12.16" style="fill: #fff;"/>
  <path d="M136.39,39.01c-.51,0-.88-.34-.88-.8,0-.52.43-.9,1-.9.18,0,.29.03.36.06.01,0,.03,0,.04.01.06-.05.23-.33.26-.48l.02-.06,1.22-3.25c.14-.37,0-.72-.16-1.13l-3.34-8.54c-.16-.73-.35-.75-.76-.8-.14-.02-.3-.04-.48-.09-.22,0-.35-.11-.4-.24-.09-.2.01-.45.16-.55l.08-.06h.2c.77.07,1.36.1,1.97.1.54,0,1.35-.06,1.92-.12.1-.02.2,0,.3.06.14.09.17.25.18.29.03.13,0,.26-.08.35-.07.09-.18.14-.31.15-.14.02-.29.05-.44.07-.19.03-.37.05-.51.08-.03,0-.05.01-.06.02,0,.03.03.09.07.19l2.72,6.83s.05.14.11.28c1.03-2.53,1.84-4.67,2.7-7.13.01-.04,0-.05,0-.06-.04-.07-.21-.16-.44-.2-.16-.03-.3-.06-.41-.07-.11-.02-.2-.04-.24-.05-.18-.06-.34-.22-.27-.49l.02-.04c.08-.18.18-.32.45-.28h.04c.48.06,1.19.12,1.63.12s1-.04,1.5-.1c.07-.01.22-.05.36.07.09.07.14.18.14.32.02.12.03.33-.24.43l-.14.04c-.31.03-.55.07-.71.11-.25.08-.28.17-.4.5-.06.17-.14.38-.28.63-.29.76-.95,2.37-1.17,2.91-.08.2-.2.5-.35.85-.32.75-.74,1.78-1.04,2.55-.04.08-.14.33-.26.66-.21.55-.51,1.3-.67,1.65-.24.63-.63,1.66-.99,2.62-.46,1.21-.85,2.26-.94,2.47-.23.48-.59,1.01-1.45,1.01M136.51,37.89c-.21,0-.42.11-.42.32s.23.22.3.22c.43,0,.67-.16.9-.62-.11.1-.24.16-.38.16h-.04c-.07-.01-.13-.03-.18-.05-.05-.02-.08-.03-.17-.03M135.48,23.78l3.32,8.48c.11.28.23.59.25.92.07-.18.13-.34.19-.49.14-.32.39-.94.59-1.45-.07.06-.15.11-.27.11-.12,0-.3-.06-.42-.34-.13-.28-.22-.49-.24-.57l-2.71-6.81c-.07-.15-.19-.44-.06-.69.01-.02.02-.04.03-.06-.42.02-.75.01-1.11,0,.18.18.33.46.43.91M142.65,22.87s.08.09.11.15c.1.17.11.36.05.55-.35,1.02-.7,1.98-1.06,2.93.29-.71.74-1.83.98-2.45.13-.25.2-.44.26-.6.08-.22.16-.42.32-.58-.23,0-.42,0-.66,0M137.67,22.76s0,0-.01,0c0,0,.01,0,.01,0" style="fill: #fff;"/>
</svg>