<svg xmlns="http://www.w3.org/2000/svg" width="64" height="64" viewBox="101.19 -2.89 23.87 23.87"><path d="M118.19 9.01091L118.325 9.20094L118.481 9.02506C119.072 8.35089 119.605 7.62011 119.979 6.96817C120.192 6.59621 120.212 6.17978 120.031 5.87958C119.902 5.66429 119.621 5.41261 118.959 5.42575C118.257 5.44192 117.444 5.55816 116.608 5.76132L116.419 5.80681L116.473 5.99178C116.713 6.80746 117.733 8.37818 118.19 9.01091Z" fill="#f1ac10"/><path d="M111.281 11.1062C111.058 10.7504 110.717 10.054 110.902 9.38489L110.965 9.16152L110.732 9.15242C110.045 9.12513 109.33 9.51225 108.956 10.1197C108.769 10.4209 108.679 10.7545 108.679 11.1012C108.073 11.3761 107.235 11.2477 106.08 10.6979L105.508 10.427L105.842 10.9607C106.102 11.3771 106.854 11.8026 107.591 11.9522C107.757 11.9856 107.948 12.0108 108.15 12.0108C108.373 12.0108 108.607 11.9745 108.833 11.8906C108.886 12.027 108.945 12.1645 109.023 12.3009C109.191 12.591 109.368 12.8154 109.551 12.9913C109.003 13.8262 108.784 15.3463 109.652 16.2308L110.448 17.0424L109.953 16.0225C109.529 15.1513 109.727 13.9697 110.18 13.4138C110.406 13.5098 110.62 13.5482 110.804 13.5593C110.837 13.5603 110.869 13.5613 110.9 13.5613C111.697 13.5613 112.419 13.0641 112.764 12.5839L112.931 12.3525L112.65 12.2959C112.234 12.214 111.658 11.7137 111.281 11.1082" fill="#f1ac10"/><path d="M118.831 12.6537C118.881 12.1655 118.761 11.7713 118.472 11.4782C118.028 11.0284 117.251 10.899 116.465 10.896C116.994 10.5078 117.528 10.0399 118.049 9.49507L118.183 9.35558L118.037 9.22924C117.452 8.72487 116.558 7.24815 116.122 6.06758L116.063 5.90384L115.895 5.95438C115.322 6.1252 114.765 6.3324 114.256 6.56083C114.598 5.9655 114.822 5.33984 114.691 4.79706C114.595 4.39882 114.323 4.08751 113.878 3.87019C113.844 1.29175 112.213 0.547831 111.594 0.264819C110.864 -0.0687316 110.277 -0.0859145 109.852 0.21327C109.117 0.731789 109.085 2.07206 109.186 3.10505C109.412 5.40857 110.478 8.36403 111.329 9.15646C111.181 9.66993 111.249 10.1935 111.544 10.706C111.904 11.3357 112.377 11.741 112.937 11.9249C113.1 13.0105 115.099 15.5525 116.983 16.9959C117.66 17.5154 118.559 18.0683 119.32 18.0683C119.49 18.0683 119.655 18.041 119.807 17.9784C120.289 17.7823 120.587 17.2809 120.693 16.4905C120.782 15.8204 121.014 14.0566 118.83 12.6537M111.017 3.12223C111.027 3.12021 111.04 3.11718 111.058 3.11718C111.102 3.11718 111.171 3.13739 111.252 3.2415C111.848 3.99654 111.856 6.9338 111.736 7.89807C111.352 7.10159 110.566 4.64039 110.792 3.51542C110.837 3.29002 110.921 3.15559 111.016 3.12223M117.967 15.1897C118.025 15.3474 117.98 15.4141 117.952 15.4444C117.855 15.5141 117.699 15.5091 117.489 15.4292C116.408 15.0209 114.723 13.0499 114.25 12.304C115.137 12.7164 117.641 14.2871 117.968 15.1897M115.441 10.9495C114.447 10.051 113.691 8.62076 113.408 7.77071C113.52 7.63325 113.636 7.48467 113.751 7.32699C114.099 8.46207 115.276 10.1824 115.957 10.9091C115.779 10.9182 115.607 10.9314 115.441 10.9485" fill="#f1ac10"/></svg>
