<svg preserveAspectRatio="none" width="100%" height="100%" overflow="visible" style="display: block;" viewBox="0 0 165 59" fill="none" xmlns="http://www.w3.org/2000/svg">
<g id="Layer_1" clip-path="url(#clip0_336_1951)">
<path id="Vector" d="M28.8548 51.0019C27.3972 50.8108 26.982 50.7542 26.8973 50.7391C26.5893 50.6825 26.4944 50.6289 26.4832 50.6309C26.476 50.6148 26.4454 50.5359 26.4454 50.3115V29.8982C26.4454 29.6314 26.5434 29.594 26.6719 29.5728C27.2809 29.4747 28.0031 29.3737 28.8161 29.2756C29.3486 29.215 29.3904 28.8481 29.3904 28.7369V28.5378C29.3904 28.4165 29.3404 28.3063 29.2527 28.2285C29.0986 28.093 28.8865 28.1001 28.7396 28.1163C27.3543 28.28 26.8188 28.3124 26.6117 28.3124C26.2067 28.3124 25.56 28.279 24.6929 28.2143C24.2757 28.182 23.9432 28.462 23.7055 29.0573C23.1679 30.3976 22.4314 32.1067 21.5164 34.1374C19.5691 38.4806 17.5269 42.9835 15.448 47.5218C15.4235 47.5754 15.4021 47.6229 15.3807 47.6664C15.3684 47.6421 15.3562 47.6138 15.3429 47.5865L6.5091 28.9138C6.22042 28.2901 5.84911 28.1911 5.59206 28.2153C4.44651 28.3275 2.96639 28.2942 1.33835 28.1173C1.19044 28.1001 0.978263 28.094 0.824232 28.2295C0.734465 28.3083 0.686522 28.4175 0.686522 28.5388V28.7712C0.686522 28.938 0.768128 29.2291 1.33019 29.309C1.84533 29.3656 2.36046 29.4151 2.84806 29.4555C3.74368 29.6162 3.83855 29.8487 3.84059 29.8558C3.85691 29.9235 3.88241 30.1135 3.88241 30.6422C3.76102 40.7659 3.55293 47.2206 3.26425 49.8304C3.20814 50.3712 3.06737 50.7108 2.89294 50.7371C2.00854 50.8563 1.2088 50.9453 0.51923 50.9998C0.0489759 51.0352 -0.00100771 51.3071 -0.00100771 51.4244V51.7387C-0.00100771 51.864 0.0479558 51.9773 0.135682 52.0591C0.24891 52.1653 0.410082 52.2087 0.638579 52.1956C1.92693 52.0864 3.12756 52.0308 4.19354 52.0308L7.8199 52.1956C7.84642 52.1976 7.87498 52.1986 7.90456 52.1986C8.03513 52.1986 8.1912 52.1764 8.30749 52.0672C8.39012 51.9904 8.43602 51.8853 8.43602 51.7721V51.5396C8.43602 51.3324 8.30035 51.0898 7.90966 51.0342C6.42138 50.8725 5.90114 50.7876 5.72671 50.7441C5.49719 50.6875 5.23299 50.5359 5.22177 49.8607C5.17791 46.8406 5.15444 42.6409 5.15444 37.3779C5.15444 35.9497 5.20953 34.5791 5.3197 33.3025L9.89881 42.8612C12.5571 48.4194 13.8863 51.2182 14.0831 51.675C14.2076 51.9459 14.3596 52.1976 14.634 52.1976C14.9227 52.1976 15.0838 51.8944 15.2358 51.5568L20.0383 40.7609C21.9234 36.5197 23.0353 34.0838 23.3413 33.5218C23.3913 33.4308 23.4352 33.349 23.477 33.2732C23.477 33.353 23.478 33.4399 23.478 33.5339V50.3146C23.478 50.5106 23.4178 50.6461 23.12 50.7108C22.1754 50.9028 21.4613 51.0009 20.9931 51.0009C20.427 51.0009 20.3984 51.3819 20.3984 51.4587V51.7397C20.3984 51.8661 20.4484 51.9803 20.5361 52.0632C20.6473 52.1673 20.8034 52.2087 21.0095 52.1976C23.3097 52.0874 24.6787 52.0318 25.0775 52.0318C25.5304 52.0318 26.78 52.0874 28.7896 52.1966C28.9364 52.2047 29.1486 52.2016 29.2945 52.0662C29.3761 51.9894 29.422 51.8843 29.422 51.7731V51.4577C29.422 51.2808 29.3231 51.0575 28.8528 51.0029" fill="var(--fill-0, #231F20)"/>
<path id="Vector_2" d="M74.6725 51.0019L72.9261 50.7714C72.2263 50.6562 71.7632 50.4126 71.549 50.0487L65.1715 39.269C64.945 38.893 65.0226 38.707 65.1174 38.5867L71.191 30.6108C71.7296 29.9124 72.0723 29.6668 72.263 29.5859C72.364 29.5435 72.7047 29.4555 73.8493 29.3443C74.3318 29.2837 74.4042 29.033 74.4042 28.8885V28.6398C74.4042 28.5064 74.3532 28.3882 74.2624 28.3033C74.1594 28.2093 74.0196 28.1678 73.8513 28.184C72.6599 28.2719 71.6439 28.3154 70.8298 28.3154C70.3678 28.3154 69.2753 28.2719 67.586 28.184C67.3738 28.1698 67.2188 28.2143 67.1086 28.3184C67.0189 28.4003 66.9699 28.5145 66.9699 28.6398V28.8885C66.9699 28.9643 66.9974 29.3454 67.5503 29.3787C68.8162 29.4404 69.159 29.6021 69.2426 29.6607C69.2283 29.7396 69.1753 29.9377 68.9754 30.3773C68.4959 31.4164 66.9627 33.73 64.4207 37.2566C64.283 37.4486 64.1871 37.5608 64.1229 37.6285C64.0872 37.58 64.0413 37.5103 63.9821 37.4102C62.4795 34.9197 61.0392 32.4989 59.7008 30.2197C59.4927 29.8578 59.4764 29.7062 59.4764 29.6668C59.4764 29.6152 59.6325 29.5414 59.9181 29.5101C61.7002 29.3251 61.9695 29.1937 61.9695 28.839V28.6388C61.9695 28.5145 61.9205 28.4013 61.8328 28.3194C61.7206 28.2133 61.5564 28.1688 61.333 28.183C60.1874 28.2709 58.9623 28.3144 57.6923 28.3144C56.3111 28.3144 55.0432 28.2709 53.9129 28.183C53.7538 28.1729 53.5508 28.18 53.407 28.3134C53.3254 28.3902 53.2795 28.4943 53.2795 28.6065V28.839C53.2795 28.94 53.3172 29.2776 53.7946 29.3726L53.8293 29.3767C54.5811 29.4444 55.1003 29.498 55.4216 29.5435C55.8337 29.597 56.1173 29.7577 56.2846 30.0357C59.0623 34.6761 61.0973 38.0621 62.1684 39.8239C62.3143 40.0675 62.3092 40.2615 62.1541 40.4718C59.0245 44.6088 56.5743 47.8352 55.0666 49.8031C54.7025 50.2761 54.3332 50.6006 53.9792 50.7623C53.8171 50.8311 53.4304 50.9453 52.493 51.105C52.4481 51.1131 52.4002 51.1232 52.3553 51.1363C52.2431 51.0686 52.0931 51.018 51.9024 50.9867L51.8514 50.9827C51.4566 50.9827 50.8833 50.924 50.1468 50.8058C49.7969 50.7482 49.5807 50.6329 49.5113 50.4753C49.493 50.4308 49.4338 50.2256 49.4338 49.4837V28.8218C49.4338 28.6014 49.4338 27.9333 48.9217 27.9333C48.6341 27.9333 48.4739 28.2032 48.4219 28.2932L48.3994 28.3407C47.8639 29.7203 47.5844 30.0114 47.5079 30.068C47.4753 30.061 47.4079 30.0347 47.2988 29.9629C45.3443 28.6489 43.3185 27.9829 41.2742 27.9829C37.757 27.9829 34.91 29.1574 32.8137 31.474C30.8032 33.6926 29.7841 36.5996 29.7841 40.115C29.7841 43.6304 30.7042 46.3332 32.5189 48.5619C34.4683 50.9362 37.1541 52.2309 40.5071 52.4119C40.553 52.4139 40.601 52.4149 40.6479 52.4149C41.1457 52.4149 41.6996 52.3017 42.2984 52.0753L46.3348 50.5076V51.2586C46.3348 51.581 46.4266 51.8256 46.6062 51.9853C46.7765 52.1349 47.004 52.1936 47.2814 52.1622C48.0475 52.0874 48.8146 52.048 49.5593 52.048V52.043C49.6898 52.0601 49.8673 52.0682 50.107 52.0814C50.4906 52.0996 51.068 52.1289 51.8381 52.1642C51.9462 52.1673 52.0788 52.1622 52.2043 52.1299C52.3247 52.235 52.4502 52.2663 52.5522 52.2663C52.5858 52.2663 52.6164 52.2633 52.644 52.2593C53.5141 52.1076 54.474 52.0318 55.4992 52.0318C56.7457 52.0318 57.9208 52.0874 58.9909 52.1956C59.0674 52.2037 59.302 52.233 59.4764 52.0814C59.5733 51.9975 59.6264 51.8752 59.6264 51.7397V51.4587C59.6264 51.3142 59.555 51.0635 59.0766 51.0039C58.1044 50.8695 57.5332 50.7937 57.3526 50.7744C57.219 50.7502 57.1456 50.7199 57.1088 50.7017C57.1303 50.6249 57.1955 50.4409 57.3985 50.0467C58.1789 48.5336 60.0732 45.7126 63.0273 41.6665C63.0773 41.5988 63.1171 41.5503 63.1487 41.5139C63.1864 41.5654 63.2385 41.6392 63.3027 41.7443L68.5561 50.2337C68.7163 50.4945 68.7397 50.6026 68.7469 50.6067C68.7305 50.6259 68.6163 50.7391 68.1165 50.8432C67.7115 50.9271 67.2678 50.9806 66.7914 51.0019C66.2436 51.0352 66.2161 51.4163 66.2161 51.4921V51.7397C66.2161 51.8661 66.266 51.9803 66.3538 52.0632C66.4649 52.1673 66.621 52.2107 66.8301 52.1966C68.7418 52.0874 70.024 52.0318 70.6442 52.0318C71.8377 52.0318 73.1464 52.0874 74.5399 52.1966C74.751 52.2107 74.9061 52.1663 75.0172 52.0632C75.107 51.9803 75.156 51.8661 75.156 51.7397V51.4921C75.156 51.295 75.0305 51.0635 74.6694 51.0039M46.3522 34.757V48.289C46.3522 48.4669 46.3022 48.7287 45.8788 48.945C44.716 49.5322 43.296 50.0942 41.6598 50.6168C40.7438 50.9058 39.7635 50.916 38.7495 50.6461C36.7165 50.1003 35.1772 48.7105 34.1766 46.5161C33.3738 44.7311 32.9657 42.5782 32.9657 40.115C32.9657 37.0534 33.6074 34.5305 34.8702 32.6152C36.2799 30.4825 38.2211 29.4454 40.804 29.4454C42.5503 29.4454 43.9264 29.9063 44.8965 30.817C45.8615 31.7206 46.3511 33.0468 46.3511 34.759" fill="var(--fill-0, #231F20)"/>
<path id="Vector_3" d="M95.9175 50.9857L95.8665 50.9817C95.4718 50.9817 94.8985 50.923 94.162 50.8048C93.8121 50.7472 93.5969 50.6319 93.5265 50.4743C93.5091 50.4298 93.45 50.2246 93.45 49.4827V28.8208C93.45 28.6004 93.45 27.9323 92.9379 27.9323C92.6492 27.9323 92.4891 28.2032 92.437 28.2921L92.4146 28.3397C91.8791 29.7193 91.5996 30.0104 91.5241 30.067C91.4904 30.06 91.4231 30.0337 91.3139 29.9619C89.3605 28.6479 87.3336 27.9818 85.2904 27.9818C81.7722 27.9818 78.9252 29.1563 76.8289 31.473C74.8183 33.6916 73.7993 36.5986 73.7993 40.114C73.7993 43.6294 74.7194 46.3332 76.5351 48.5609C78.4824 50.9352 81.1693 52.2299 84.5223 52.4109C84.5692 52.4129 84.6172 52.4139 84.6641 52.4139C85.1619 52.4139 85.7148 52.3007 86.3135 52.0743L90.351 50.5066V51.2576C90.351 51.58 90.4418 51.8246 90.6213 51.9843C90.7917 52.1339 91.0202 52.1936 91.2966 52.1612C92.0637 52.0864 92.8298 52.047 93.5744 52.047V52.0419C93.705 52.0591 93.8825 52.0672 94.1222 52.0804C94.5068 52.0985 95.0841 52.1279 95.8533 52.1632C96.0369 52.1683 96.3042 52.1622 96.4745 51.9995C96.5643 51.9126 96.6132 51.7973 96.6132 51.673V51.5396C96.6132 51.2455 96.3807 51.0605 95.9175 50.9867M90.3673 34.757V48.289C90.3673 48.4669 90.3184 48.7287 89.894 48.945C88.7311 49.5322 87.3112 50.0942 85.675 50.6168C84.759 50.9058 83.7787 50.916 82.7647 50.6461C80.7317 50.1003 79.1924 48.7105 78.1917 46.5161C77.3889 44.7321 76.9819 42.5782 76.9819 40.115C76.9819 37.0534 77.6225 34.5305 78.8854 32.6152C80.2951 30.4825 82.2363 29.4454 84.8202 29.4454C86.5655 29.4454 87.9416 29.9063 88.9117 30.817C89.8767 31.7206 90.3663 33.0468 90.3663 34.759" fill="var(--fill-0, #231F20)"/>
<path id="Vector_4" d="M106.217 51.0322C105.687 51.011 104.894 50.9129 103.863 50.7381C103.743 50.7178 103.419 50.6653 103.419 49.8648V30.2298C103.419 29.6546 103.679 29.6243 103.813 29.6082C104.872 29.498 105.624 29.4212 106.077 29.3757C106.56 29.316 106.632 29.0644 106.632 28.9208V28.6388C106.632 28.5034 106.579 28.3821 106.482 28.2972C106.308 28.1446 106.072 28.1739 106.006 28.183C104.849 28.2921 103.453 28.3477 101.852 28.3477C100.983 28.3477 99.702 28.2921 98.0413 28.182C97.8404 28.1698 97.6884 28.2123 97.5802 28.3134C97.4895 28.3963 97.4415 28.5125 97.4415 28.6388V28.8875C97.4415 29.0148 97.4997 29.314 98.0311 29.3433C99.7989 29.4626 100.246 29.6294 100.353 29.69C100.366 29.7517 100.386 29.9094 100.386 30.2631V49.8638C100.386 50.6673 100.087 50.7178 99.9733 50.7371C99.3287 50.8452 98.6115 50.9331 97.8322 50.9998C97.2977 51.0585 97.2395 51.3617 97.2395 51.4891V51.7367C97.2395 51.8681 97.2926 51.9874 97.3875 52.0723C97.5078 52.1794 97.6659 52.2016 97.7781 52.2016C97.8312 52.2016 97.874 52.1966 97.8985 52.1946C99.3868 52.0632 100.74 51.9954 101.92 51.9954C103.023 51.9954 104.444 52.0632 106.151 52.1946C106.353 52.2067 106.508 52.1612 106.619 52.0571C106.714 51.9682 106.767 51.8438 106.767 51.7054V51.4901C106.767 51.4193 106.742 51.0686 106.218 51.0322" fill="var(--fill-0, #231F20)"/>
<path id="Vector_5" d="M123.362 29.9033C121.935 28.6732 120.128 28.0496 117.991 28.0496C117.396 28.0496 116.498 28.0829 115.32 28.1486C114.154 28.2153 113.268 28.2477 112.686 28.2477C112.257 28.2477 110.979 28.2032 108.89 28.1153C108.678 28.1011 108.523 28.1466 108.411 28.2497C108.323 28.3316 108.274 28.4468 108.274 28.5721V28.8046C108.274 29.0088 108.399 29.2493 108.773 29.31L110.551 29.4727C111.001 29.5556 111.538 29.7254 111.538 30.064V56.929C111.538 57.3535 111.342 57.401 111.242 57.4252C110.752 57.5314 109.995 57.6355 108.982 57.7335C108.507 57.7881 108.407 58.0115 108.407 58.1884V58.4532C108.407 58.6412 108.489 58.7544 108.558 58.814C108.627 58.8757 108.745 58.9454 108.926 58.9272C110.371 58.8282 111.749 58.7786 113.019 58.7786C114.222 58.7786 115.655 58.8514 117.266 58.9909C117.306 58.996 117.346 58.998 117.384 58.998C117.541 58.998 117.666 58.9565 117.762 58.8716C117.86 58.7837 117.915 58.6594 117.915 58.5189V58.2864C117.915 58.1601 117.859 57.8589 117.348 57.7992C116.318 57.6557 115.515 57.5395 114.961 57.4525C114.695 57.4091 114.518 57.2918 114.518 56.8612V30.2298C114.518 29.6031 115.938 29.5101 116.783 29.5101C118.623 29.5101 120.078 30.0509 121.108 31.1172C122.142 32.1876 122.665 33.6623 122.665 35.5029C122.665 37.2424 122.216 38.6817 121.333 39.7764C120.374 40.957 119.077 41.529 117.37 41.529C116.476 41.529 115.737 41.5715 115.737 42.086C115.737 42.5327 116.273 42.6106 117.403 42.6106C119.724 42.6106 121.646 42.0112 123.117 40.8286C124.796 39.4772 125.648 37.5234 125.648 35.0228C125.648 32.9204 124.876 31.1981 123.36 29.9023" fill="var(--fill-0, #231F20)"/>
<path id="Vector_6" d="M149.322 50.9867L149.27 50.9827C148.876 50.9827 148.302 50.923 147.567 50.8058C147.216 50.7472 147.001 50.6329 146.929 50.4732C146.912 50.4298 146.853 50.2266 146.853 49.4837V28.8218C146.853 28.6014 146.853 27.9333 146.341 27.9333C146.052 27.9333 145.892 28.2042 145.84 28.2932L145.818 28.3397C145.282 29.7203 145.002 30.0094 144.927 30.067C144.893 30.059 144.827 30.0347 144.718 29.9609C142.763 28.6479 140.735 27.9818 138.693 27.9818C135.175 27.9818 132.329 29.1553 130.232 31.472C128.221 33.6916 127.202 36.5975 127.202 40.113C127.202 43.6284 128.122 46.3322 129.938 48.5599C131.885 50.9341 134.573 52.2299 137.925 52.4119C137.973 52.4139 138.02 52.4149 138.067 52.4149C138.565 52.4149 139.118 52.3007 139.716 52.0743L143.754 50.5076V51.2586C143.754 51.581 143.845 51.8246 144.024 51.9853C144.195 52.1339 144.422 52.1946 144.698 52.1622C145.466 52.0864 146.232 52.048 146.976 52.048V52.0419C147.107 52.0601 147.284 52.0682 147.525 52.0803C147.909 52.0996 148.486 52.1279 149.256 52.1642C149.439 52.1683 149.706 52.1632 149.876 51.9995C149.966 51.9136 150.015 51.7983 150.015 51.674V51.5406C150.015 51.2455 149.783 51.0595 149.32 50.9877M138.225 29.4444C139.971 29.4444 141.348 29.9063 142.317 30.815C143.282 31.7196 143.771 33.0457 143.771 34.758V48.29C143.771 48.4679 143.722 48.7297 143.298 48.946C142.136 49.5322 140.716 50.0952 139.079 50.6168C138.163 50.9069 137.183 50.916 136.169 50.6471C134.136 50.1013 132.596 48.7105 131.596 46.5161C130.793 44.7321 130.386 42.5782 130.386 40.115C130.386 37.0544 131.026 34.5326 132.289 32.6162C133.699 30.4835 135.64 29.4464 138.224 29.4464" fill="var(--fill-0, #231F20)"/>
<path id="Vector_7" d="M13.2355 1.20381C9.6958 1.20381 6.74371 2.35911 4.46078 4.63837C2.17888 6.91662 1.02109 9.84984 1.02109 13.3552C1.02109 16.8605 2.17276 19.8523 4.44242 22.1518C6.71515 24.4543 9.67234 25.6207 13.2355 25.6207C16.7986 25.6207 19.4865 24.3947 21.6745 21.9759C23.7891 19.6552 24.8612 16.7553 24.8612 13.3541C24.8612 9.95294 23.7769 7.12282 21.6409 4.81222C19.4293 2.41773 16.6017 1.20179 13.2365 1.20179M21.6562 13.3562C21.6562 16.2601 20.8666 18.7759 19.308 20.8348C17.6381 23.0402 15.4307 24.1592 12.7479 24.1592C10.0651 24.1592 7.98616 23.0696 6.39586 20.8257C4.95552 18.7991 4.22617 16.2864 4.22617 13.3562C4.22617 10.426 4.97796 7.85157 6.45809 5.85735C8.0494 3.71252 10.1069 2.66941 12.7479 2.66941C15.3888 2.66941 17.6381 3.78226 19.309 5.97864C20.8666 8.02643 21.6551 10.5089 21.6551 13.3572" fill="var(--fill-0, #231F20)"/>
<path id="Vector_8" d="M41.6445 3.1283C40.2144 1.89719 38.4037 1.27153 36.2667 1.27153C35.6689 1.27153 34.7947 1.30388 33.591 1.37059C32.4353 1.4373 31.5488 1.46964 30.9531 1.46964C30.5145 1.46964 29.2323 1.42517 27.1513 1.33824C27.0738 1.33319 26.8371 1.31904 26.6729 1.47166C26.5831 1.55354 26.5342 1.66876 26.5342 1.7941V2.02657C26.5342 2.23378 26.6607 2.47434 27.033 2.53195L28.814 2.69569C29.2659 2.77858 29.8035 2.9504 29.8035 3.29002V23.4708C29.8035 23.6012 29.8035 23.9459 28.9609 24.1127C28.3978 24.1662 27.8317 24.2168 27.2441 24.2602C26.7688 24.3168 26.6698 24.5402 26.6698 24.7161V24.9991C26.6698 25.1366 26.7219 25.2609 26.8157 25.3438C26.8851 25.4044 27.0054 25.4731 27.189 25.4549C28.4784 25.367 29.8576 25.3225 31.2897 25.3225C32.6179 25.3225 34.0511 25.3903 35.5424 25.5196C35.5863 25.5247 35.6291 25.5277 35.6689 25.5277C35.826 25.5277 35.9505 25.4863 36.0463 25.4014C36.1422 25.3175 36.1953 25.1972 36.1953 25.0638V24.8313C36.1953 24.7302 36.1535 24.3896 35.624 24.3269C34.8467 24.2279 34.0429 24.1167 33.2371 23.9954C32.9698 23.953 32.7923 23.8347 32.7923 23.4031V3.45679C32.7923 2.82911 34.2143 2.73511 35.062 2.73511C36.9042 2.73511 38.3619 3.27688 39.3932 4.34626C40.4276 5.41969 40.9529 6.89641 40.9529 8.73801C40.9529 10.4816 40.5031 11.9219 39.6176 13.0196C38.6588 14.2012 37.3592 14.7743 35.6495 14.7743C34.7539 14.7743 34.0133 14.8157 34.0133 15.3332C34.0133 15.779 34.5509 15.8568 35.6822 15.8568C38.0059 15.8568 39.9318 15.2564 41.4038 14.0728C43.0869 12.7184 43.9387 10.7615 43.9387 8.25689C43.9387 6.15148 43.1665 4.42611 41.6466 3.1283" fill="var(--fill-0, #231F20)"/>
<path id="Vector_9" d="M57.0691 1.20482C53.5304 1.20482 50.5783 2.36012 48.2954 4.63938C46.0135 6.91763 44.8567 9.85085 44.8567 13.3562C44.8567 16.8615 46.0074 19.8533 48.277 22.1528C50.5498 24.4543 53.507 25.6217 57.0691 25.6217C60.6311 25.6217 63.3211 24.3957 65.5091 21.9769C67.6227 19.6562 68.6959 16.7543 68.6959 13.3552C68.6959 9.95597 67.6115 7.12383 65.4755 4.81323C63.264 2.41875 60.4353 1.2028 57.0701 1.2028M56.5825 2.6684C59.2653 2.6684 61.4727 3.78125 63.1426 5.97763C64.7012 8.02542 65.4908 10.5078 65.4908 13.3562C65.4908 16.2045 64.7002 18.7759 63.1426 20.8348C61.4727 23.0402 59.2653 24.1592 56.5825 24.1592C53.8997 24.1592 51.8208 23.0696 50.2295 20.8257C48.7901 18.7991 48.0608 16.2864 48.0608 13.3562C48.0608 10.426 48.8126 7.85157 50.2927 5.85735C51.885 3.71252 53.9415 2.66941 56.5825 2.66941" fill="var(--fill-0, #231F20)"/>
<path id="Vector_10" d="M89.1871 20.015L89.1493 19.9696C89.0657 19.8877 88.9535 19.8412 88.8331 19.8412H88.5648C88.3261 19.8412 88.1538 20.014 88.0538 20.3567C87.3958 21.9193 86.9643 22.8927 86.7695 23.2454C86.7471 23.2859 86.6318 23.4304 86.1218 23.5527C84.8905 23.8579 80.5675 24.0176 73.2699 24.0257C74.242 22.6531 76.7973 19.07 80.8867 13.344L81.0214 13.156L74.0319 3.35269C74.0135 3.32742 73.9972 3.30316 73.9829 3.28193C82.6097 3.28294 84.9915 3.42142 85.4659 3.53766C85.8841 3.64378 86.1513 3.7954 86.2381 3.97127C86.6247 4.81626 87.0613 5.89677 87.5366 7.18953C87.7192 7.6757 88.0313 7.6565 88.1436 7.62617C88.2048 7.61404 88.2976 7.58979 88.421 7.55441C88.6934 7.47658 88.7831 7.20873 88.6842 6.75692C88.2955 5.04166 87.9814 3.34763 87.7488 1.70717C87.66 1.19371 87.3285 1.13811 87.1908 1.13811H86.8889C86.643 1.13811 86.4472 1.26648 86.3645 1.47874C86.335 1.55151 86.2778 1.70212 85.9157 1.70212C84.6804 1.70212 81.9048 1.7193 77.6654 1.75266L70.4106 1.82038C70.3055 1.82038 69.9903 1.82038 69.8587 2.07104C69.8138 2.15898 69.7618 2.33788 69.9261 2.56429L77.5021 13.157L69.4221 24.4321C69.3314 24.5604 69.2426 24.7252 69.1559 24.9203L69.1284 24.9809V25.0496C69.1284 25.2649 69.261 25.5227 69.8934 25.5227L76.5463 25.4903C80.5573 25.4903 84.2367 25.5469 87.4723 25.6551C87.4897 25.6571 87.507 25.6571 87.5254 25.6571C87.8406 25.6571 88.0711 25.4711 88.1313 25.1699C88.5455 23.3607 88.9004 21.8415 89.185 20.6609C89.2667 20.3395 89.2871 20.1596 89.1871 20.0161" fill="var(--fill-0, #231F20)"/>
<path id="Vector_11" d="M153.177 42.0759C152.934 42.0465 152.733 41.8555 152.703 41.6048C152.666 41.3077 152.879 41.0398 153.178 41.0045C153.216 40.9994 153.253 40.9954 153.289 40.9903C153.587 40.9499 153.862 41.1561 153.903 41.4502C153.943 41.7463 153.735 42.0172 153.437 42.0587C153.395 42.0637 153.351 42.0698 153.308 42.0748C153.264 42.0799 153.219 42.0799 153.177 42.0748M156.03 41.1409C155.861 41.1207 155.705 41.0226 155.617 40.8629C155.473 40.6012 155.57 40.2747 155.834 40.1312C155.867 40.113 155.899 40.0948 155.933 40.0766C156.195 39.929 156.526 40.021 156.675 40.2818C156.822 40.5415 156.73 40.869 156.468 41.0166C156.43 41.0378 156.393 41.058 156.355 41.0782C156.252 41.1338 156.139 41.153 156.029 41.1399M158.447 39.3529C158.327 39.3387 158.21 39.2841 158.121 39.1912C157.913 38.9769 157.919 38.6342 158.137 38.427L158.219 38.3482C158.434 38.14 158.778 38.143 158.99 38.3553C159.2 38.5675 159.197 38.9092 158.982 39.1194C158.951 39.1487 158.922 39.177 158.891 39.2073C158.768 39.3236 158.604 39.3721 158.448 39.3529M160.411 37.0777C160.323 37.0665 160.238 37.0352 160.162 36.9816C159.917 36.8098 159.859 36.4722 160.033 36.2296L160.101 36.1346C160.273 35.89 160.613 35.8314 160.86 36.0012C161.105 36.172 161.167 36.5076 160.994 36.7532L160.922 36.8543C160.801 37.0211 160.602 37.0999 160.411 37.0777ZM161.967 34.5083C161.907 34.5012 161.846 34.484 161.788 34.4537C161.52 34.3193 161.412 33.9959 161.547 33.73L161.6 33.6249C161.734 33.3581 162.06 33.2499 162.329 33.3823C162.599 33.5157 162.709 33.8382 162.575 34.105L162.519 34.2162C162.412 34.4244 162.189 34.5356 161.967 34.5073M163.148 31.7499C163.11 31.7449 163.071 31.7368 163.033 31.7237C162.749 31.6256 162.6 31.3173 162.698 31.0353L162.736 30.9262C162.834 30.6442 163.143 30.4926 163.428 30.5896C163.713 30.6856 163.865 30.9929 163.767 31.2749L163.727 31.3901C163.64 31.6347 163.396 31.7793 163.147 31.7489M163.957 28.8632C163.942 28.8612 163.926 28.8592 163.911 28.8561C163.618 28.7955 163.429 28.5084 163.49 28.2173L163.514 28.1021C163.574 27.811 163.861 27.621 164.157 27.6827C164.451 27.7413 164.643 28.0273 164.582 28.3184L164.556 28.4397C164.498 28.7157 164.236 28.8966 163.958 28.8642M164.382 25.8956C164.094 25.8613 163.883 25.6086 163.904 25.3205L163.912 25.2043C163.932 24.9071 164.191 24.6817 164.492 24.7009C164.793 24.7211 165.019 24.9779 165 25.276L164.99 25.3994C164.968 25.6965 164.707 25.9199 164.407 25.8997C164.399 25.8987 164.389 25.8977 164.382 25.8966M137.527 20.5366C137.409 20.5224 137.293 20.4679 137.202 20.3759C137.165 20.3375 137.129 20.2981 137.094 20.2566C136.902 20.0272 136.935 19.6865 137.165 19.4965C137.397 19.3065 137.741 19.3378 137.932 19.5673C137.95 19.5885 137.967 19.6067 137.985 19.6259C138.194 19.8402 138.189 20.1808 137.972 20.39C137.85 20.5073 137.684 20.5568 137.527 20.5376M140.182 20.485C140.048 20.4689 139.919 20.4042 139.827 20.293C139.635 20.0625 139.67 19.7229 139.901 19.5339C139.926 19.5127 139.951 19.4925 139.975 19.4713C140.198 19.2721 140.543 19.2883 140.744 19.5107C140.945 19.732 140.927 20.0737 140.703 20.2718C140.666 20.3051 140.629 20.3365 140.593 20.3668C140.473 20.4638 140.324 20.5022 140.181 20.485M164.377 22.8997C164.126 22.8694 163.921 22.6663 163.9 22.4055L163.89 22.2892C163.866 21.9921 164.088 21.7313 164.388 21.7071C164.688 21.6818 164.951 21.9021 164.976 22.1993L164.987 22.3226C165.009 22.6198 164.785 22.8805 164.486 22.9028C164.449 22.9058 164.412 22.9048 164.377 22.9008M136.99 17.6832C136.99 17.6832 136.979 17.6822 136.973 17.6812C136.676 17.6367 136.472 17.3628 136.516 17.0667C136.523 17.0242 136.531 16.9807 136.537 16.9383C136.589 16.6442 136.867 16.444 137.165 16.4976C137.463 16.5481 137.662 16.8281 137.611 17.1202C137.605 17.1566 137.598 17.193 137.593 17.2294C137.549 17.5185 137.281 17.7196 136.989 17.6832M141.547 17.8732C141.534 17.8722 141.522 17.8702 141.509 17.8672C141.213 17.8096 141.021 17.5276 141.078 17.2334C141.085 17.197 141.093 17.1607 141.099 17.1243C141.153 16.8301 141.434 16.6361 141.731 16.6886C142.028 16.7412 142.224 17.0222 142.171 17.3153C142.164 17.3578 142.155 17.3992 142.147 17.4417C142.092 17.7206 141.828 17.9076 141.546 17.8732M163.892 19.9443C163.676 19.918 163.487 19.7634 163.43 19.543L163.401 19.4298C163.324 19.1428 163.497 18.8466 163.788 18.7708C164.078 18.695 164.377 18.8668 164.453 19.1539L164.485 19.2742C164.56 19.5622 164.384 19.8564 164.092 19.9311C164.024 19.9473 163.956 19.9514 163.891 19.9443M137.956 14.8551C137.894 14.848 137.83 14.8288 137.771 14.7985C137.504 14.6621 137.399 14.3376 137.538 14.0708C137.557 14.0334 137.576 13.996 137.597 13.9596C137.738 13.6958 138.068 13.5957 138.333 13.7362C138.599 13.8757 138.699 14.2032 138.559 14.466C138.54 14.4993 138.523 14.5337 138.506 14.566C138.397 14.7722 138.175 14.8804 137.956 14.8541M141.593 14.8895C141.355 14.8602 141.157 14.6772 141.121 14.4296C141.116 14.3932 141.11 14.3558 141.104 14.3184C141.058 14.0233 141.261 13.7483 141.559 13.7018C141.857 13.6553 142.134 13.8575 142.181 14.1526L142.199 14.278C142.241 14.5731 142.035 14.846 141.738 14.8875C141.688 14.8945 141.641 14.8945 141.593 14.8895ZM162.864 17.1313C162.685 17.1101 162.522 17.002 162.439 16.8291L162.388 16.727C162.254 16.4592 162.366 16.1358 162.635 16.0044C162.905 15.873 163.232 15.9841 163.365 16.251L163.419 16.3622C163.55 16.63 163.436 16.9524 163.166 17.0818C163.068 17.1283 162.964 17.1435 162.864 17.1324M139.686 12.4061C139.577 12.3919 139.472 12.3464 139.384 12.2676C139.162 12.0664 139.148 11.7248 139.351 11.5045C139.379 11.4741 139.408 11.4438 139.438 11.4125C139.643 11.1952 139.988 11.184 140.207 11.3882C140.217 11.3993 140.228 11.4074 140.238 11.4185C140.217 11.1952 140.339 10.9738 140.557 10.8778C140.831 10.7565 141.154 10.8768 141.277 11.1487L141.328 11.2639C141.449 11.5358 141.323 11.8542 141.048 11.9745C140.803 12.0796 140.524 11.9937 140.38 11.7854C140.38 11.9158 140.331 12.0482 140.233 12.1513L140.154 12.2342C140.032 12.3676 139.855 12.4242 139.686 12.405M161.263 14.5964C161.127 14.5792 160.995 14.5125 160.902 14.3942L160.83 14.3043C160.641 14.0728 160.678 13.7332 160.912 13.5462C161.145 13.3582 161.488 13.3956 161.678 13.626L161.755 13.7231C161.943 13.9566 161.903 14.2962 161.666 14.4811C161.548 14.5751 161.402 14.6115 161.262 14.5954M142.007 10.4947C141.848 10.4755 141.7 10.3876 141.61 10.244C141.451 9.99236 141.528 9.65982 141.783 9.50113C141.819 9.4799 141.856 9.45767 141.891 9.43644C142.149 9.28079 142.484 9.36165 142.64 9.61737C142.796 9.87107 142.714 10.2036 142.457 10.3583L142.359 10.4179C142.249 10.4856 142.126 10.5099 142.005 10.4957M159.137 12.4758C159.039 12.4647 158.944 12.4253 158.862 12.3616L158.77 12.2888C158.535 12.1038 158.496 11.7642 158.681 11.5317C158.868 11.2983 159.21 11.2578 159.446 11.4428L159.544 11.5196C159.777 11.7066 159.815 12.0462 159.626 12.2787C159.505 12.4283 159.317 12.498 159.136 12.4748M139.218 9.44756C139.08 9.43139 138.947 9.36165 138.854 9.24339L138.782 9.15343C138.595 8.92096 138.634 8.58134 138.87 8.39536C139.105 8.20938 139.447 8.24779 139.635 8.48229C139.66 8.51463 139.688 8.549 139.713 8.58033C139.898 8.81685 139.855 9.15545 139.619 9.33739C139.5 9.42937 139.355 9.46474 139.218 9.44756ZM120.095 6.54062C119.939 6.52141 119.793 6.43651 119.702 6.29703C119.538 6.04636 119.612 5.7118 119.866 5.55109L119.971 5.48337C120.224 5.32468 120.56 5.39745 120.723 5.65014C120.885 5.90081 120.81 6.23537 120.555 6.39507L120.456 6.45875C120.344 6.5295 120.217 6.55376 120.096 6.53961M156.603 10.8525C156.541 10.8454 156.477 10.8262 156.419 10.7959L156.314 10.7434C156.046 10.6089 155.938 10.2855 156.072 10.0196C156.208 9.75281 156.535 9.64567 156.805 9.7801L156.917 9.8367C157.184 9.97315 157.289 10.2976 157.152 10.5634C157.043 10.7706 156.821 10.8788 156.602 10.8525M144.758 9.27472C144.549 9.25046 144.364 9.10491 144.302 8.89164C144.217 8.60459 144.382 8.3054 144.67 8.22151L144.791 8.18714C145.081 8.10628 145.382 8.27306 145.464 8.5591C145.544 8.84616 145.376 9.14433 145.087 9.22519L144.975 9.25754C144.901 9.27876 144.827 9.28382 144.756 9.27472M153.807 9.7235C153.774 9.71945 153.741 9.71238 153.709 9.70328L153.597 9.66791C153.309 9.57896 153.147 9.27775 153.237 8.99373C153.325 8.7087 153.63 8.549 153.917 8.63693L154.035 8.67332C154.322 8.76227 154.481 9.06549 154.391 9.34952C154.313 9.6012 154.063 9.75382 153.807 9.7235ZM147.736 8.80573C147.474 8.77338 147.268 8.55809 147.258 8.29024C147.247 7.99207 147.481 7.74241 147.783 7.73028C147.824 7.72927 147.866 7.72826 147.909 7.72725C148.21 7.71815 148.461 7.95366 148.468 8.25183C148.476 8.55001 148.239 8.79764 147.938 8.80573L147.823 8.80977C147.792 8.81078 147.764 8.80876 147.736 8.80573ZM150.868 9.03214C150.86 9.03113 150.851 9.02911 150.851 9.02911L150.725 9.00889C150.428 8.96037 150.227 8.68444 150.275 8.3893C150.324 8.09517 150.603 7.89402 150.901 7.94254L151.023 7.96377C151.32 8.0143 151.519 8.29125 151.469 8.58538C151.42 8.87042 151.152 9.0665 150.866 9.03214M137.091 7.32598C136.994 7.31385 136.899 7.27645 136.818 7.21277L136.727 7.14101C136.49 6.95604 136.448 6.61744 136.634 6.38294C136.819 6.14844 137.162 6.107 137.398 6.29096L137.497 6.36879C137.731 6.55376 137.769 6.89438 137.583 7.12686C137.461 7.27847 137.273 7.34822 137.091 7.32598ZM122.761 5.12455C122.574 5.10332 122.405 4.98607 122.325 4.80312C122.207 4.5282 122.335 4.21183 122.611 4.09357L122.726 4.04506C123.004 3.92882 123.323 4.0582 123.44 4.33312C123.555 4.60805 123.425 4.9234 123.148 5.03863L123.04 5.08311C122.948 5.12252 122.853 5.13465 122.761 5.12252M134.545 5.7219C134.483 5.71382 134.424 5.69765 134.366 5.66732L134.263 5.61577C133.993 5.48438 133.882 5.16194 134.014 4.8951C134.147 4.62725 134.472 4.51607 134.743 4.64747L134.855 4.70306C135.124 4.83749 135.233 5.16194 135.098 5.42878C134.991 5.63801 134.767 5.74818 134.546 5.72292M125.642 4.23508C125.414 4.20779 125.219 4.03798 125.172 3.80146C125.116 3.51036 125.309 3.22533 125.605 3.16873C125.646 3.16165 125.687 3.15357 125.729 3.14649C126.025 3.09191 126.31 3.28598 126.363 3.5791C126.418 3.87323 126.222 4.15422 125.925 4.20779L125.812 4.22901C125.755 4.24013 125.698 4.24114 125.642 4.23407M131.735 4.62422C131.705 4.62018 131.674 4.6131 131.644 4.60502L131.53 4.57166C131.243 4.48777 131.077 4.18858 131.162 3.90153C131.247 3.61548 131.549 3.45174 131.838 3.53563L131.958 3.57101C132.245 3.65692 132.41 3.95914 132.322 4.24316C132.244 4.4999 131.994 4.65555 131.735 4.62422ZM128.653 4.03394C128.369 3.99957 128.158 3.75194 128.175 3.46589C128.194 3.16772 128.452 2.94232 128.752 2.9595C128.794 2.96253 128.836 2.96456 128.879 2.96759C129.18 2.98881 129.406 3.24858 129.382 3.54574C129.361 3.8429 129.1 4.06628 128.8 4.04405C128.761 4.04202 128.723 4.03899 128.685 4.03697C128.673 4.03596 128.663 4.03495 128.652 4.03394" fill="var(--fill-0, #231F20)"/>
<path id="Vector_12" d="M118.19 9.01091L118.325 9.20094L118.481 9.02506C119.072 8.35089 119.605 7.62011 119.979 6.96817C120.192 6.59621 120.212 6.17978 120.031 5.87958C119.902 5.66429 119.621 5.41261 118.959 5.42575C118.257 5.44192 117.444 5.55816 116.608 5.76132L116.419 5.80681L116.473 5.99178C116.713 6.80746 117.733 8.37818 118.19 9.01091Z" fill="var(--fill-0, #231F20)"/>
<path id="Vector_13" d="M111.281 11.1062C111.058 10.7504 110.717 10.054 110.902 9.38489L110.965 9.16152L110.732 9.15242C110.045 9.12513 109.33 9.51225 108.956 10.1197C108.769 10.4209 108.679 10.7545 108.679 11.1012C108.073 11.3761 107.235 11.2477 106.08 10.6979L105.508 10.427L105.842 10.9607C106.102 11.3771 106.854 11.8026 107.591 11.9522C107.757 11.9856 107.948 12.0108 108.15 12.0108C108.373 12.0108 108.607 11.9745 108.833 11.8906C108.886 12.027 108.945 12.1645 109.023 12.3009C109.191 12.591 109.368 12.8154 109.551 12.9913C109.003 13.8262 108.784 15.3463 109.652 16.2308L110.448 17.0424L109.953 16.0225C109.529 15.1513 109.727 13.9697 110.18 13.4138C110.406 13.5098 110.62 13.5482 110.804 13.5593C110.837 13.5603 110.869 13.5613 110.9 13.5613C111.697 13.5613 112.419 13.0641 112.764 12.5839L112.931 12.3525L112.65 12.2959C112.234 12.214 111.658 11.7137 111.281 11.1082" fill="var(--fill-0, #231F20)"/>
<path id="Vector_14" d="M118.831 12.6537C118.881 12.1655 118.761 11.7713 118.472 11.4782C118.028 11.0284 117.251 10.899 116.465 10.896C116.994 10.5078 117.528 10.0399 118.049 9.49507L118.183 9.35558L118.037 9.22924C117.452 8.72487 116.558 7.24815 116.122 6.06758L116.063 5.90384L115.895 5.95438C115.322 6.1252 114.765 6.3324 114.256 6.56083C114.598 5.9655 114.822 5.33984 114.691 4.79706C114.595 4.39882 114.323 4.08751 113.878 3.87019C113.844 1.29175 112.213 0.547831 111.594 0.264819C110.864 -0.0687316 110.277 -0.0859145 109.852 0.21327C109.117 0.731789 109.085 2.07206 109.186 3.10505C109.412 5.40857 110.478 8.36403 111.329 9.15646C111.181 9.66993 111.249 10.1935 111.544 10.706C111.904 11.3357 112.377 11.741 112.937 11.9249C113.1 13.0105 115.099 15.5525 116.983 16.9959C117.66 17.5154 118.559 18.0683 119.32 18.0683C119.49 18.0683 119.655 18.041 119.807 17.9784C120.289 17.7823 120.587 17.2809 120.693 16.4905C120.782 15.8204 121.014 14.0566 118.83 12.6537M111.017 3.12223C111.027 3.12021 111.04 3.11718 111.058 3.11718C111.102 3.11718 111.171 3.13739 111.252 3.2415C111.848 3.99654 111.856 6.9338 111.736 7.89807C111.352 7.10159 110.566 4.64039 110.792 3.51542C110.837 3.29002 110.921 3.15559 111.016 3.12223M117.967 15.1897C118.025 15.3474 117.98 15.4141 117.952 15.4444C117.855 15.5141 117.699 15.5091 117.489 15.4292C116.408 15.0209 114.723 13.0499 114.25 12.304C115.137 12.7164 117.641 14.2871 117.968 15.1897M115.441 10.9495C114.447 10.051 113.691 8.62076 113.408 7.77071C113.52 7.63325 113.636 7.48467 113.751 7.32699C114.099 8.46207 115.276 10.1824 115.957 10.9091C115.779 10.9182 115.607 10.9314 115.441 10.9485" fill="var(--fill-0, #231F20)"/>
</g>
<defs>
<clipPath id="clip0_336_1951">
<rect width="165" height="59" fill="white"/>
</clipPath>
</defs>
</svg>
