<svg preserveAspectRatio="none" width="100%" height="100%" overflow="visible" style="display: block;" viewBox="0 0 26 15" fill="none" xmlns="http://www.w3.org/2000/svg">
<g id="Layer_1" clip-path="url(#clip0_386_2082)">
<path id="Vector" d="M17.0314 4.63798C17.072 4.87368 17.405 5.17077 17.6574 5.18266C19.5803 5.28103 21.6406 5.05128 23.5473 5.18134C24.7649 5.26386 25.8993 6.01849 26.0008 7.27751L25.9839 12.1816C25.6705 13.0273 24.6113 12.6589 23.906 12.746C23.5459 14.3114 22.0339 15.2542 20.4142 14.9386C19.5756 14.7749 18.7769 14.1411 18.4142 13.3904C18.3668 13.292 18.1996 12.7586 18.1617 12.7454L10.55 12.7394L10.4491 12.7731C10.0302 14.5676 8.04502 15.5064 6.32585 14.7168C5.52177 14.3471 4.92751 13.5898 4.74273 12.7454C4.19585 12.6675 3.0723 12.9217 2.66484 12.511C2.6134 12.4588 2.44622 12.1855 2.44622 12.1301V9.76981H0.736535C0.616058 9.76981 0.336524 9.64305 0.244475 9.55656C-0.303763 9.03961 0.142949 8.22029 0.869872 8.25L7.74112 8.25132C8.57024 8.11796 8.58919 6.97051 7.77157 6.8015L0.83603 6.79952C-0.248262 6.74076 -0.303086 5.36554 0.83603 5.27839C2.32642 5.16483 3.96708 5.3662 5.47304 5.27905C6.26494 5.17408 6.40436 3.99164 5.5326 3.86884C4.2236 3.76783 2.77043 3.97381 1.47902 3.86158C0.71826 3.79555 0.496258 2.8125 1.16971 2.46787C1.20355 2.4507 1.36329 2.37478 1.37885 2.37478H2.44487V0.577685C2.44487 0.400748 2.85774 0 3.0371 0H16.9799L17.0307 0.0495158V4.63798H17.0314ZM7.41217 10.803C5.77897 11.0216 5.84191 13.362 7.43789 13.5007C9.55774 13.6849 9.39937 10.5376 7.41217 10.803ZM20.8819 10.8037C18.9306 11.0308 19.4984 14.0295 21.4985 13.4518C23.0221 13.0114 22.5835 10.6056 20.8819 10.8037Z" fill="var(--fill-0, #F1AC10)"/>
<path id="Vector_2" d="M18.5203 0.214569C18.546 0.130062 18.7531 0.196743 18.8249 0.214569C20.5515 0.629842 21.8754 2.07834 22.6544 3.57636C22.672 3.61004 22.7525 3.73019 22.6659 3.73019H18.571L18.5203 3.68068V0.214569Z" fill="var(--fill-0, #F1AC10)"/>
</g>
<defs>
<clipPath id="clip0_386_2082">
<rect width="26" height="15" fill="white"/>
</clipPath>
</defs>
</svg>
