<svg preserveAspectRatio="none" width="100%" height="100%" overflow="visible" style="display: block;" viewBox="0 0 26 24" fill="none" xmlns="http://www.w3.org/2000/svg">
<g id="Layer_1" clip-path="url(#clip0_386_2068)">
<path id="Vector" d="M21.2876 3.68785V9.13706C21.1343 9.14586 21.0309 9.04385 20.8776 9.02697C19.9806 8.92569 19.5998 9.52309 18.8946 9.8849C18.6108 10.0309 18.5025 10.0031 18.2222 9.88857C17.5384 9.60822 17.045 9.07761 16.2315 9.27209C15.3409 9.48566 15.2097 10.5403 14.8767 11.2536C14.759 11.5068 14.6892 11.5853 14.4161 11.6595C13.7016 11.854 12.8881 11.716 12.3754 12.3853C11.7394 13.2168 12.3404 14.1503 12.4396 15.0538C12.406 15.1418 12.3911 15.2394 12.3397 15.3209C12.0253 15.8155 11.3016 16.2082 11.1012 16.8349C10.6941 18.1068 11.8185 18.4987 12.4823 19.2091C12.8046 19.554 12.6093 19.8755 12.5886 20.2923H0.19965C0.108382 20.2923 -0.0178248 20.0435 0.0021401 19.9459V3.83316C-0.0171118 3.72968 0.100539 3.44933 0.19965 3.44933H21.0915C21.1535 3.44933 21.2876 3.62547 21.2876 3.68785Z" fill="var(--fill-0, #F1AC10)"/>
<path id="Vector_2" d="M25.5437 17.2973C25.0638 17.836 24.5276 18.2279 24.6132 19.0528C24.6588 19.4983 25.0139 20.3283 24.9575 20.7121C24.9369 20.8538 24.77 21.0673 24.6395 21.1187C24.1483 21.3132 23.4288 21.2449 22.9318 21.4893C22.1539 21.8717 22.1418 22.7759 21.7774 23.4569C21.6555 23.6844 21.4295 23.8253 21.1706 23.7703C20.3499 23.451 19.654 22.7179 18.7321 23.1479C18.3841 23.3109 17.5556 24.0103 17.2425 24C17.0151 23.9927 16.8653 23.8407 16.7534 23.6565C16.4397 23.1413 16.245 22.3715 15.7238 22.0376C15.1405 21.6647 14.4018 21.8438 13.7565 21.7139C13.5276 21.6677 13.3551 21.4651 13.3366 21.2288C13.2824 20.5463 13.6995 19.8043 13.4271 19.0807C13.1925 18.4591 12.4132 18.1347 12.0189 17.6679C11.8613 17.4808 11.8342 17.1997 11.9675 16.9905C12.3946 16.3219 13.3087 15.9469 13.2988 14.9928C13.2938 14.4688 12.938 13.7826 12.9194 13.2909C12.913 13.1133 13.0663 12.8506 13.2225 12.7779C13.6068 12.5981 14.3476 12.6077 14.7997 12.4565C15.6275 12.1805 15.7216 11.3292 16.0411 10.6151C16.2022 10.2555 16.3192 10.0376 16.7698 10.1337C17.1014 10.2049 17.6825 10.632 18.044 10.767C18.5167 10.9432 18.8818 10.8801 19.3146 10.646C19.6005 10.4911 20.1831 9.99792 20.4298 9.92233C20.6416 9.85701 20.8854 9.90178 21.0373 10.0713C21.2904 10.3531 21.5122 11.0467 21.7418 11.4011C22.3315 12.3134 23.2177 12.0015 24.1055 12.1607C24.3907 12.2121 24.5775 12.4528 24.5689 12.75C24.5497 13.437 24.2067 14.1349 24.4777 14.8226C24.673 15.3187 25.4046 15.7502 25.7797 16.1245C25.8745 16.2192 25.9586 16.2838 25.9843 16.4269C26.0663 16.8841 25.8011 17.0045 25.5429 17.2944L25.5437 17.2973ZM18.4996 12.3038C17.654 12.375 16.799 12.7486 16.1366 13.2843C16.0247 13.3753 15.6339 13.7151 15.599 13.8318C15.5077 14.1356 15.6589 14.471 15.9919 14.4593C16.2643 14.4498 16.5523 14.049 16.7833 13.8766C18.0932 12.899 19.9143 12.9365 21.1977 13.9448C21.4886 14.1738 21.7239 14.6259 22.1325 14.3918C22.4427 14.2142 22.335 13.8362 22.1268 13.6124C21.2191 12.6348 19.7902 12.1952 18.4996 12.3038ZM14.7277 15.8155H15.7081C15.7473 15.8155 15.9441 15.6636 15.9755 15.6137C16.1402 15.3583 16.0247 15.0149 15.7273 14.951C15.4913 14.9004 14.4988 14.9011 14.2492 14.9378C14.0974 14.9598 13.9291 15.0677 13.8884 15.227L13.8799 18.6499C13.9833 18.9581 14.3933 19.044 14.6079 18.8113C14.6328 18.7842 14.727 18.6058 14.727 18.5853V17.4294H15.743C15.845 17.4294 16.0168 17.2188 16.0382 17.1087C16.0889 16.8496 15.8992 16.5487 15.6361 16.5487H14.727V15.8148L14.7277 15.8155ZM17.3302 18.586C17.3659 18.3636 17.3302 17.9534 17.3302 17.7053C17.3302 17.6987 17.388 17.64 17.4008 17.6503L18.0554 18.8121C18.2237 18.9566 18.4476 18.9941 18.6315 18.8612C19.1128 18.5141 18.3998 17.822 18.2493 17.4565C18.2287 17.4066 18.2144 17.3589 18.2187 17.3039C19.3453 16.7212 19.0287 15.0339 17.7417 14.9334C17.5356 14.9173 16.8432 14.9048 16.6914 14.9928C16.5595 15.0692 16.4867 15.2438 16.4725 15.3914C16.3783 16.3917 16.5395 17.5593 16.4824 18.5772C16.5644 19.0836 17.2561 19.0454 17.3295 18.586H17.3302ZM20.0754 15.8155H21.0558C21.0951 15.8155 21.2911 15.6636 21.3232 15.6137C21.4822 15.3671 21.3489 15.0178 21.0758 14.9503C20.869 14.8996 19.8301 14.9055 19.597 14.9378C19.408 14.9642 19.2526 15.0794 19.2176 15.2813C19.2918 16.3337 19.1249 17.5138 19.2176 18.5508C19.2333 18.7255 19.346 18.9031 19.5242 18.9324C19.987 19.008 20.6351 18.8884 21.1179 18.9258C21.5592 18.7702 21.4052 18.0539 20.9838 18.0539H20.0747V17.3934H21.0195C21.0287 17.3934 21.1685 17.3288 21.192 17.3142C21.4116 17.1784 21.458 16.868 21.304 16.6603C21.2776 16.625 21.1136 16.5128 21.0908 16.5128H20.0747V15.8155H20.0754ZM22.7136 16.5128C22.725 16.4768 22.678 16.4335 22.678 16.421V15.8706C23.0031 15.6981 23.6064 15.9675 23.8916 15.6886C24.1639 15.4229 24.0064 14.9892 23.6548 14.9378C23.3981 14.9004 22.4512 14.8967 22.1988 14.9371C21.9999 14.9686 21.8744 15.1169 21.8559 15.318C21.7646 16.3432 21.9293 17.5101 21.8559 18.5508C21.8423 18.7159 22.0099 18.9075 22.1625 18.9324C22.4134 18.9735 23.4374 18.972 23.6948 18.9361C24.1333 18.8752 24.211 18.1134 23.5165 18.0525C23.2484 18.029 22.9104 18.1171 22.6773 17.9989V17.4485C22.6994 17.4118 22.7265 17.4008 22.7664 17.3934C23.0987 17.331 23.637 17.5211 23.9073 17.2467C24.0727 17.0786 24.077 16.8041 23.913 16.6353C23.8951 16.617 23.7397 16.5128 23.729 16.5128H22.7129H22.7136ZM15.9669 19.4205C15.6318 19.4395 15.4642 19.8219 15.6382 20.1074C15.7844 20.3466 16.3049 20.7385 16.5488 20.8949C18.1602 21.9289 20.2587 21.8071 21.7475 20.6006C22.0199 20.3797 22.5504 19.9907 22.2331 19.5944C21.8801 19.1526 21.5899 19.6091 21.3396 19.8146C20.0198 20.9007 18.2565 21.0607 16.8404 20.0443C16.6058 19.8762 16.2386 19.4051 15.9662 19.4205H15.9669Z" fill="var(--fill-0, #F1AC10)"/>
<path id="Vector_3" d="M20.3963 2.56865H0.894855L2.98047 0H18.3107L20.325 2.44022L20.3963 2.56865Z" fill="var(--fill-0, #F1AC10)"/>
<path id="Vector_4" d="M17.3302 16.5494V15.8155C18.3014 15.635 18.3042 16.7351 17.3302 16.5494Z" fill="var(--fill-0, #F1AC10)"/>
</g>
<defs>
<clipPath id="clip0_386_2068">
<rect width="26" height="24" fill="white"/>
</clipPath>
</defs>
</svg>
