<svg preserveAspectRatio="none" width="100%" height="100%" overflow="visible" style="display: block;" viewBox="0 0 16 16" fill="none" xmlns="http://www.w3.org/2000/svg">
<g id="SVG">
<g id="Vector">
</g>
<path id="Vector_2" d="M4.03313 13.2893C4.76341 13.2893 5.35544 12.6973 5.35544 11.967C5.35544 11.2367 4.76341 10.6447 4.03313 10.6447C3.30282 10.6447 2.71082 11.2367 2.71082 11.967C2.71082 12.6973 3.30282 13.2893 4.03313 13.2893Z" stroke="var(--stroke-0, white)" stroke-width="1.22738" stroke-miterlimit="10"/>
<path id="Vector_3" d="M11.9668 13.2893C12.6971 13.2893 13.2891 12.6973 13.2891 11.967C13.2891 11.2367 12.6971 10.6447 11.9668 10.6447C11.2365 10.6447 10.6445 11.2367 10.6445 11.967C10.6445 12.6973 11.2365 13.2893 11.9668 13.2893Z" stroke="var(--stroke-0, white)" stroke-width="1.22738" stroke-miterlimit="10"/>
<path id="Vector_4" d="M2.71077 11.9665H0.730769V2.71034H12.6246V5.35495L13.9469 7.99957L15.2692 8.74034V11.9665H13.2892" stroke="var(--stroke-0, white)" stroke-width="1.22738" stroke-miterlimit="10"/>
<path id="Vector_5" d="M10.6444 11.9671H5.35524" stroke="var(--stroke-0, white)" stroke-width="1.22738" stroke-miterlimit="10"/>
<path id="Vector_6" d="M13.9469 7.9997H9.97994V5.35509H12.6246" stroke="var(--stroke-0, white)" stroke-width="1.22738" stroke-miterlimit="10"/>
</g>
</svg>
