<svg preserveAspectRatio="none" width="100%" height="100%" overflow="visible" style="display: block;" viewBox="0 0 15 15" fill="none" xmlns="http://www.w3.org/2000/svg">
<g id="Icon">
<path id="Vector" d="M14.9414 7.67578C14.9219 7.72461 14.8999 7.76855 14.8755 7.80762C14.8511 7.84668 14.8242 7.88086 14.7949 7.91016L10.0781 12.8613C10.0293 12.9199 9.96826 12.9663 9.89502 13.0005C9.82178 13.0347 9.73633 13.0615 9.63867 13.0811H9.60938C9.52148 13.0811 9.44092 13.0664 9.36768 13.0371C9.29443 13.0078 9.22852 12.9687 9.16992 12.9199C9.11133 12.8613 9.0625 12.7954 9.02344 12.7222C8.98437 12.6489 8.95996 12.5732 8.9502 12.4951C8.9502 12.4072 8.9624 12.3193 8.98682 12.2314C9.01123 12.1436 9.05762 12.0605 9.12598 11.9824L12.7734 8.12988H0.65918C0.483398 8.12988 0.332031 8.06641 0.205078 7.93945C0.078125 7.8125 0.0146484 7.66113 0.0146484 7.48535C0.0146484 7.30957 0.078125 7.16064 0.205078 7.03857C0.332031 6.9165 0.483398 6.85547 0.65918 6.85547H12.7881L9.15527 2.98828C9.08691 2.91992 9.04297 2.84668 9.02344 2.76855C9.00391 2.69043 8.99414 2.6123 8.99414 2.53418C8.99414 2.45605 9.01367 2.38037 9.05273 2.30713C9.0918 2.23389 9.14062 2.16309 9.19922 2.09473C9.24805 2.02637 9.31396 1.9751 9.39697 1.94092C9.47998 1.90674 9.56055 1.88965 9.63867 1.88965C9.7168 1.88965 9.79248 1.9043 9.86572 1.93359C9.93896 1.96289 10.0098 2.00195 10.0781 2.05078L14.8389 7.0459C14.8877 7.13379 14.9219 7.19971 14.9414 7.24365C14.9609 7.2876 14.9707 7.32422 14.9707 7.35352C14.9805 7.40234 14.9829 7.45361 14.978 7.50732C14.9731 7.56104 14.9609 7.61719 14.9414 7.67578Z" fill="var(--fill-0, white)"/>
</g>
</svg>
